<?xml version="1.0" encoding="UTF-8"?>
<!-- Generator: Adobe Illustrator 25.0.0, SVG Export Plug-In . SVG Version: 6.00 Build 0)  -->
<svg xmlns="http://www.w3.org/2000/svg" xmlns:xlink="http://www.w3.org/1999/xlink" version="1.1" id="Слой_1" x="0px" y="0px" viewBox="0 0 82.2 20" style="enable-background:new 0 0 82.2 20;" xml:space="preserve">
<style type="text/css">
	.st0{fill-rule:evenodd;clip-rule:evenodd;fill:#FFFFFF;}
</style>
<g>
	<path class="st0" d="M35.9,19.1c1,0.6,2.1,0.9,3.4,0.9c1,0,1.8-0.2,2.5-0.5c0.7-0.3,1.2-0.8,1.5-1.5l0.1,0l0,1.7l3.4,0l0-19.7   l-3.4,0l0,7.3l-0.1,0c-0.4-0.6-1-1-1.6-1.3c-0.6-0.3-1.4-0.4-2.2-0.4c-1.3,0-2.4,0.3-3.5,0.9c-1,0.6-1.8,1.5-2.4,2.6   c-0.6,1.1-0.9,2.4-0.9,3.8c0,1.3,0.3,2.5,0.9,3.6C34.1,17.6,34.9,18.4,35.9,19.1z M37.1,15.7c-0.7-0.8-1-1.7-1-2.9   c0-1.2,0.3-2.1,1-2.9c0.7-0.8,1.6-1.2,2.7-1.2s2.1,0.4,2.7,1.2c0.7,0.8,1,1.7,1,2.9c0,1.2-0.3,2.1-1,2.9c-0.7,0.8-1.6,1.1-2.7,1.1   C38.7,16.8,37.8,16.4,37.1,15.7z M52.4,19.1c1.1,0.6,2.3,0.9,3.6,0.9c1.1,0,2.2-0.2,3.2-0.6c1-0.4,1.9-1,2.5-1.7l-2-2.1   c-0.5,0.4-1.1,0.8-1.7,0.9c-0.6,0.2-1.3,0.3-2,0.3c-1,0-1.9-0.3-2.6-0.8c-0.7-0.6-1.1-1.3-1.2-2.2l10.2,0l0.1-1   c0-1.4-0.3-2.7-0.8-3.8c-0.5-1.1-1.3-1.9-2.3-2.6c-1-0.6-2.2-0.9-3.5-0.9c-1.3,0-2.5,0.3-3.5,0.9C51.3,7,50.5,7.9,49.9,9   c-0.6,1.1-0.9,2.3-0.9,3.7c0,1.4,0.3,2.7,0.9,3.8C50.5,17.7,51.4,18.5,52.4,19.1z M58.1,9.4c0.6,0.5,1,1.1,1,1.9l-6.8,0   c0.1-0.8,0.5-1.4,1.2-1.9c0.7-0.5,1.5-0.7,2.4-0.7C56.8,8.7,57.5,8.9,58.1,9.4z M64.4,8c1.7-1.6,3.7-2.4,6.1-2.4   c1.9,0,3.4,0.5,4.5,1.5s1.7,2.4,1.7,4.2l0,8.4l-3.4,0l0-2l-0.1,0c-0.6,0.8-1.3,1.4-2.1,1.7c-0.8,0.4-1.6,0.6-2.6,0.6   c-0.8,0-1.6-0.2-2.3-0.5c-0.7-0.3-1.2-0.8-1.7-1.5c-0.4-0.6-0.6-1.4-0.6-2.3c0-1.3,0.5-2.3,1.5-3.1c1-0.8,2.4-1.2,4.2-1.2l3.7,0   l0-0.3c0-0.8-0.3-1.4-0.9-1.9C71.7,8.8,71,8.6,70,8.6c-1.4,0-2.6,0.5-3.6,1.5L64.4,8z M67.3,15.6c0,0.4,0.2,0.8,0.5,1.1   c0.4,0.3,0.9,0.5,1.7,0.5c0.8,0,1.4-0.1,1.9-0.4c0.6-0.3,1-0.7,1.3-1.2c0.3-0.5,0.5-1,0.5-1.5l0-0.1l-3.7,0c-0.8,0-1.3,0.2-1.7,0.5   C67.5,14.8,67.3,15.2,67.3,15.6z M78.7,0l3.4,0l0,19.7l-3.4,0L78.7,0z M26.9,9.3l1.9,2.9L33,6l-3.9,0L26.9,9.3z M28.8,13.1L26.9,16   l2.4,3.7l3.9,0L28.8,13.1z"></path>
	<path class="st0" d="M17.2,6.3l-3.4,0l0,13.4l3.4,0L17.2,6.3z M14,0.6C13.6,1,13.4,1.5,13.4,2s0.2,1,0.6,1.4   c0.4,0.4,0.9,0.6,1.4,0.6c0.6,0,1-0.2,1.4-0.6c0.4-0.4,0.6-0.9,0.6-1.4c0-0.6-0.2-1-0.6-1.4C16.5,0.2,16,0,15.5,0   C14.9,0,14.4,0.2,14,0.6z M11.6,0.7L0,0.7l0,19l3.5,0l0-7.1l7.5,0l0-3.1l-7.5,0l0-5.6l8.1,0L11.6,0.7z M18.9,5.9l4.5,6.7l-4.7,7   l3.9,0l4.6-7l-4.4-6.7L18.9,5.9z"></path>
</g>
</svg>
