<svg xmlns="http://www.w3.org/2000/svg" aria-hidden="true" style="position:absolute;width:0;height:0;overflow:hidden">
  <defs>
    <symbol id="icon-benefits-p5" viewBox="0 0 32 32">
      <path d="m10.393 10.623.747.96a5.868 5.868 0 0 0-.688 1.532l-1.149.145a.365.365 0 0 0-.32.359v1.852c0 .184.136.339.32.359l1.047.131a5.72 5.72 0 0 0 .655 1.721l-.606.781a.362.362 0 0 0 .029.48l1.309 1.309a.362.362 0 0 0 .48.029l.722-.562a5.89 5.89 0 0 0 1.804.776l.112.878c.024.184.179.32.359.32h1.852a.359.359 0 0 0 .359-.32l.112-.878a5.89 5.89 0 0 0 1.804-.776l.722.562a.363.363 0 0 0 .48-.029l1.309-1.309a.362.362 0 0 0 .029-.48l-.606-.781a5.968 5.968 0 0 0 .655-1.721l1.047-.131a.365.365 0 0 0 .32-.359v-1.852a.359.359 0 0 0-.32-.359l-1.149-.145a5.901 5.901 0 0 0-.688-1.532l.747-.96a.362.362 0 0 0-.029-.48l-1.309-1.309a.362.362 0 0 0-.48-.029l-1.023.795a5.824 5.824 0 0 0-1.45-.587l-.16-1.299a.365.365 0 0 0-.359-.32h-1.852a.359.359 0 0 0-.359.32l-.16 1.299a5.763 5.763 0 0 0-1.45.587l-1.023-.795a.362.362 0 0 0-.48.029l-1.309 1.309a.345.345 0 0 0-.048.48zm1.624-1.047.965.752a.364.364 0 0 0 .417.019 5.154 5.154 0 0 1 1.687-.679.355.355 0 0 0 .286-.31l.155-1.236h1.207l.155 1.236a.36.36 0 0 0 .286.31 5.11 5.11 0 0 1 1.687.679.366.366 0 0 0 .417-.019l.965-.752.853.853-.713.916a.363.363 0 0 0-.01.431c.373.529.635 1.12.79 1.755.034.145.16.257.31.276l1.076.136v1.207l-.989.121a.37.37 0 0 0-.315.305 5.163 5.163 0 0 1-.732 1.939.366.366 0 0 0 .019.417l.562.727-.853.853-.679-.528a.365.365 0 0 0-.432-.01 5.108 5.108 0 0 1-2.007.863.36.36 0 0 0-.291.31l-.102.815h-1.207l-.102-.815a.36.36 0 0 0-.291-.31 5.186 5.186 0 0 1-2.007-.863.365.365 0 0 0-.432.01l-.679.528-.853-.853.562-.727a.364.364 0 0 0 .019-.417 5.152 5.152 0 0 1-.732-1.939.37.37 0 0 0-.315-.305l-.994-.126v-1.207l1.076-.136a.366.366 0 0 0 .31-.276 5.133 5.133 0 0 1 .79-1.755.365.365 0 0 0-.01-.432l-.713-.916.858-.848z"/>
      <path d="M16.133 17.993c1.789 0 3.244-1.455 3.244-3.244s-1.455-3.244-3.244-3.244c-1.789 0-3.244 1.455-3.244 3.244s1.455 3.244 3.244 3.244zm0-5.76c1.387 0 2.516 1.13 2.516 2.516s-1.13 2.516-2.516 2.516c-1.387 0-2.516-1.13-2.516-2.516s1.13-2.516 2.516-2.516zM21.481 8.606a.367.367 0 0 0 .364-.364v-3.03h1.721a1.82 1.82 0 0 0 1.779 1.455 1.819 1.819 0 0 0 0-3.636c-.878 0-1.615.625-1.779 1.455h-2.085a.367.367 0 0 0-.364.364v3.394c0 .199.16.364.364.364zm3.864-4.848c.601 0 1.091.49 1.091 1.091s-.49 1.091-1.091 1.091-1.091-.49-1.091-1.091.49-1.091 1.091-1.091z"/>
      <path d="M28.739 6.909c-.878 0-1.615.625-1.779 1.455h-1.615a.367.367 0 0 0-.364.364v2.545h-2.55c-.199 0-.364.165-.364.364s.165.364.364.364h2.55v2.182h-.606c-.199 0-.364.165-.364.364s.165.364.364.364h.97a.367.367 0 0 0 .364-.364v-2.545h.606a1.58 1.58 0 0 1 1.576 1.576v11.273H4.376V13.578a1.58 1.58 0 0 1 1.576-1.576h.606v2.545c0 .199.165.364.364.364h.97c.199 0 .364-.165.364-.364s-.165-.364-.364-.364h-.606v-2.182h2.55c.199 0 .364-.165.364-.364s-.165-.364-.364-.364h-2.55V8.728a.367.367 0 0 0-.364-.364H5.307a1.82 1.82 0 0 0-1.779-1.455 1.819 1.819 0 0 0 0 3.636c.878 0 1.615-.625 1.779-1.455h1.251v2.182h-.606a2.305 2.305 0 0 0-2.303 2.303v12.606a2.305 2.305 0 0 0 2.303 2.303h5.455v2.182H9.831c-.199 0-.364.165-.364.364s.165.364.364.364h12.606c.199 0 .364-.165.364-.364s-.165-.364-.364-.364h-1.576v-2.182h5.455a2.305 2.305 0 0 0 2.303-2.303V13.575a2.305 2.305 0 0 0-2.303-2.303h-.606V9.09h1.251a1.82 1.82 0 0 0 1.779 1.455 1.819 1.819 0 0 0 0-3.636zM3.527 9.818c-.601 0-1.091-.49-1.091-1.091s.49-1.091 1.091-1.091 1.091.49 1.091 1.091-.49 1.091-1.091 1.091zm16.606 20.849h-8v-2.182h8v2.182zm7.758-4.485a1.58 1.58 0 0 1-1.576 1.576H5.951a1.58 1.58 0 0 1-1.576-1.576v-.606H27.89v.606zm.848-16.364c-.601 0-1.091-.49-1.091-1.091s.49-1.091 1.091-1.091 1.091.49 1.091 1.091-.49 1.091-1.091 1.091z"/>
      <path d="M6.921 6.667c.878 0 1.615-.625 1.779-1.455h1.721v3.03c0 .199.165.364.364.364s.364-.165.364-.364V4.848a.367.367 0 0 0-.364-.364H8.7a1.82 1.82 0 0 0-1.779-1.455 1.819 1.819 0 0 0 0 3.636zm0-2.909c.601 0 1.091.49 1.091 1.091S7.522 5.94 6.921 5.94 5.83 5.45 5.83 4.849s.49-1.091 1.091-1.091zM15.77 4.204v2.099c0 .199.165.364.364.364s.364-.165.364-.364V4.204a1.82 1.82 0 0 0 1.455-1.779 1.819 1.819 0 0 0-3.636 0c0 .878.625 1.615 1.455 1.779zm.363-2.871c.601 0 1.091.49 1.091 1.091s-.49 1.091-1.091 1.091-1.091-.49-1.091-1.091.49-1.091 1.091-1.091z"/>
    </symbol>
    <symbol id="icon-benefits-p2" viewBox="0 0 32 32">
      <path fill="#fff" d="M25.889 5.265h-2.857a.312.312 0 0 0-.312.312v14.05c0 .173.14.313.312.313h2.857c.173 0 .312-.14.312-.313V5.577a.312.312 0 0 0-.312-.312zm-.312 14.051h-2.232V5.891h2.232v13.425zm3.048 1.449H21.97a6.517 6.517 0 0 0-.773-2.342V9.58a.312.312 0 0 0-.313-.312h-2.857a.313.313 0 0 0-.313.312v5.864a6.521 6.521 0 0 0-1.522-.358V8.461a.312.312 0 0 0-.312-.312h-2.857a.313.313 0 0 0-.313.312v7.189a6.566 6.566 0 0 0-1.522.98v-4.226a.313.313 0 0 0-.313-.313H8.018a.313.313 0 0 0-.313.313v7.224c0 .173.14.312.313.312h1.094a6.384 6.384 0 0 0-.161.824H5.534V1.306a.313.313 0 0 0-.313-.313H3.906a.313.313 0 0 0-.313.313v21.086c0 .173.14.312.313.312h5.082c.523 3.099 3.226 5.467 6.471 5.467a6.528 6.528 0 0 0 3.836-1.241l.757.757a.814.814 0 0 0 .234.687l2.851 2.851c.258.258.602.4.969.4s.711-.142.969-.4.4-.602.4-.969-.142-.711-.4-.969l-2.851-2.851a.818.818 0 0 0-.687-.234l-.757-.757a6.52 6.52 0 0 0 1.149-2.74h6.693c.173 0 .312-.14.312-.312v-1.315a.312.312 0 0 0-.312-.312zM18.34 9.892h2.232v7.604a6.6 6.6 0 0 0-2.232-1.785V9.892zm-5.004-1.118h2.232v6.273l-.107-.001c-.744 0-1.459.124-2.125.353V8.774zM8.331 19.316v-6.599h2.232v4.528a6.556 6.556 0 0 0-1.252 2.071h-.98zM4.22 22.08V1.619h.69v19.458c0 .173.14.313.313.313h3.679c-.002.073-.004.146-.004.219 0 .158.006.315.017.471H4.22zm20.415 7.649c.14.14.217.327.217.527a.74.74 0 0 1-.744.744.74.74 0 0 1-.527-.217l-2.851-2.851a.197.197 0 0 1 0-.28l.774-.774a.197.197 0 0 1 .28 0l2.851 2.851zm-3.659-3.207-.601.601-.586-.586c.213-.187.414-.388.601-.601l.586.586zm-5.515 1.025c-3.274 0-5.938-2.664-5.938-5.938s2.664-5.938 5.938-5.938c3.274 0 5.938 2.664 5.938 5.938s-2.664 5.938-5.938 5.938zm12.851-5.467h-6.305c.011-.156.017-.313.017-.471 0-.073-.002-.146-.004-.219h6.292v.69zM9.037 10.736a.313.313 0 0 1 .003-.442l5.192-5.129a.313.313 0 0 1 .386-.042l4.059 2.551 6.541-6.541-.744.109a.312.312 0 1 1-.09-.618l1.677-.246a.311.311 0 0 1 .354.354l-.246 1.677a.313.313 0 0 1-.619-.09l.109-.744-6.717 6.717a.313.313 0 0 1-.387.044l-4.06-2.552-5.016 4.954a.312.312 0 0 1-.442-.003zm6.424 5.785c-2.805 0-5.088 2.282-5.088 5.088s2.282 5.088 5.088 5.088c2.805 0 5.088-2.282 5.088-5.088s-2.282-5.088-5.088-5.088zm0 9.55c-2.461 0-4.463-2.002-4.463-4.463s2.002-4.463 4.463-4.463c2.461 0 4.463 2.002 4.463 4.463s-2.002 4.463-4.463 4.463z" style="fill:var(--color1, #fff)"/>
    </symbol>
    <symbol id="icon-benefits-p6" viewBox="0 0 32 32">
      <path fill="#fff" d="M9.375 26.593c1.749 1.556 3.984 2.738 6.831 3.615.064.02.132.02.196 0 2.847-.876 5.082-2.059 6.831-3.615 1.582-1.407 2.736-3.096 3.527-5.165 1.466-3.83 1.457-8.384 1.447-13.206l-.002-1.202c0-.085-.032-.167-.091-.228s-.138-.099-.222-.104a18.566 18.566 0 0 1-11.363-4.822.334.334 0 0 0-.45 0A18.56 18.56 0 0 1 4.716 6.688a.336.336 0 0 0-.313.332l-.002 1.202c-.01 4.822-.019 9.376 1.447 13.206.791 2.068 1.945 3.757 3.527 5.165zM5.068 8.224l.002-.893A19.244 19.244 0 0 0 16.305 2.56 19.238 19.238 0 0 0 27.54 7.331l.002.893c.02 9.549.038 17.799-11.236 21.317C5.032 26.024 5.05 17.773 5.07 8.224zM16.2 28.34a.328.328 0 0 0 .21 0c4.692-1.554 7.504-4.089 8.848-7.978 1.224-3.541 1.198-8.087 1.177-11.739a.337.337 0 0 0-.286-.328 20.31 20.31 0 0 1-9.638-4.117.334.334 0 0 0-.412 0 20.315 20.315 0 0 1-9.638 4.117.335.335 0 0 0-.286.328c-.021 3.652-.047 8.198 1.177 11.739 1.344 3.889 4.156 6.424 8.848 7.978zM6.839 8.912a20.986 20.986 0 0 0 9.465-4.05 20.986 20.986 0 0 0 9.465 4.05c.02 3.551.014 7.888-1.142 11.232-1.261 3.647-3.907 6.041-8.323 7.528-4.416-1.486-7.062-3.88-8.323-7.528C6.825 16.8 6.819 12.463 6.839 8.912zm5.996 13.814h6.939a1.335 1.335 0 0 0 1.336-1.336v-5.949a1.334 1.334 0 0 0-1.155-1.322v-1.194a3.651 3.651 0 0 0-6.231-2.581 3.651 3.651 0 0 0-1.069 2.581v1.194a1.336 1.336 0 0 0-1.155 1.322v5.949a1.339 1.339 0 0 0 1.336 1.336zm3.469-12.785a2.99 2.99 0 0 1 2.984 2.984v1.182H13.32v-1.182a2.99 2.99 0 0 1 2.984-2.984zm-4.138 5.501a.668.668 0 0 1 .669-.668h6.939a.673.673 0 0 1 .669.668v5.949a.673.673 0 0 1-.669.669h-6.939a.673.673 0 0 1-.669-.669v-5.949zm2.937 5.202h2.403c.053 0 .106-.013.154-.037s.088-.06.119-.104a.33.33 0 0 0 .042-.304l-.516-1.442a1.475 1.475 0 0 0 .378-1.625 1.479 1.479 0 1 0-2.376 1.625l-.516 1.442a.342.342 0 0 0 .161.408c.047.025.1.037.154.037zm1.201-3.788a.809.809 0 0 1 .756 1.104.811.811 0 0 1-.329.397.33.33 0 0 0-.138.395l.439 1.225h-1.456l.439-1.225a.332.332 0 0 0-.138-.395.818.818 0 0 1-.353-.912.81.81 0 0 1 .78-.589z" style="fill:var(--color1, #fff)"/>
    </symbol>
    <symbol id="icon-benefits-p1" viewBox="0 0 32 32">
      <path d="M5.979 10.775c0-.207.168-.375.375-.375h7.856a.375.375 0 0 1 0 .75H6.354a.375.375 0 0 1-.375-.375zm12.248 3.553H6.354a.375.375 0 0 0 0 .75h11.873a.375.375 0 0 0 0-.75zm0 3.928H6.354a.375.375 0 0 0 0 .75h11.873a.375.375 0 0 0 0-.75zm0 3.927H6.354a.375.375 0 0 0 0 .75h11.873a.375.375 0 0 0 0-.75zm0 3.928H6.354a.375.375 0 0 0 0 .75h11.873a.375.375 0 0 0 0-.75zm11.588-.333a5.29 5.29 0 0 1-5.284 5.284 5.249 5.249 0 0 1-2.326-.541H2.56a.378.378 0 0 1-.375-.375V6.132c0-.207.168-.375.375-.375h1.901V3.721c0-.207.168-.375.375-.375h1.901V1.311c0-.207.168-.375.375-.375h14.015a.38.38 0 0 1 .263.107l5.713 5.624a.375.375 0 0 1 .112.267v14.293a5.284 5.284 0 0 1 2.6 4.549zM7.488 3.348h11.364a.38.38 0 0 1 .263.107l5.713 5.624a.375.375 0 0 1 .112.267V20.51a5.234 5.234 0 0 1 1.526.351V7.094l-5.491-5.406H7.488v1.66zm-2.277 2.41 11.364.001c.097 0 .191.036.263.107l5.713 5.624a.375.375 0 0 1 .111.268h.001v9.078a5.202 5.202 0 0 1 1.526-.329V9.505l-5.492-5.406H5.211V5.76zM16.95 7.029v4.354h4.422L16.95 7.029zm4.126 22.743a5.274 5.274 0 0 1-1.829-3.994 5.288 5.288 0 0 1 2.667-4.588v-9.058h-5.338a.375.375 0 0 1-.375-.375V6.508H2.936v23.264h18.141zm7.989-3.994c0-2.501-2.034-4.534-4.534-4.534s-4.534 2.034-4.534 4.534 2.034 4.534 4.534 4.534a4.539 4.539 0 0 0 4.534-4.534zm-2.491-.375h-1.668v-1.668a.375.375 0 0 0-.75 0v1.668h-1.668a.375.375 0 0 0 0 .75h1.668v1.668a.375.375 0 0 0 .75 0v-1.668h1.668a.375.375 0 0 0 0-.75z"/>
    </symbol>
    <symbol id="icon-benefits-p4" viewBox="0 0 32 32">
      <path fill="#fff" d="M24.125 19.65h-8.75a.627.627 0 0 1-.625-.625v-2.263c0-.344.281-.625.625-.625h8.75c.344 0 .625.281.625.625v2.263a.627.627 0 0 1-.625.625zm-8.75-2.894v2.263h8.75v-2.263h-8.75zM24.125 25.325h-8.75a.627.627 0 0 1-.625-.625v-3.875c0-.344.281-.625.625-.625h8.75c.344 0 .625.281.625.625V24.7a.627.627 0 0 1-.625.625zm-8.75-4.5V24.7h8.75v-3.875h-8.75zM24.125 15.4h-8.75a.627.627 0 0 1-.625-.625v-2.262c0-.344.281-.625.625-.625h8.75c.344 0 .625.281.625.625v2.262a.627.627 0 0 1-.625.625zm-8.75-2.887v2.262h8.75v-2.262h-8.75zM12 25.312H7.875a.627.627 0 0 1-.625-.625V12.512c0-.344.281-.625.625-.625H12c.344 0 .625.281.625.625v12.175a.627.627 0 0 1-.625.625zm-4.125-12.8v12.175H12V12.512H7.875z" style="fill:var(--color1, #fff)"/>
      <path fill="#fff" d="M26.688 4.688H5.313a.627.627 0 0 0-.625.625v21.375c0 .344.281.625.625.625h21.375a.627.627 0 0 0 .625-.625V5.313a.627.627 0 0 0-.625-.625zm0 .624V9.95H5.313V5.312h21.375zM5.312 26.688V10.575h21.375v16.113H5.312z" style="fill:var(--color1, #fff)"/>
      <path fill="#fff" d="M13.188 8.638c-.55 0-1-.45-1-1s.45-1 1-1 1 .45 1 1-.45 1-1 1zm0-1.376c-.206 0-.375.169-.375.375s.169.375.375.375.375-.169.375-.375-.169-.375-.375-.375zM10.719 8.638c-.55 0-1-.45-1-1s.45-1 1-1 1 .45 1 1-.45 1-1 1zm0-1.376c-.206 0-.375.169-.375.375s.169.375.375.375.375-.169.375-.375-.169-.375-.375-.375zM8.25 8.638c-.55 0-1-.45-1-1s.45-1 1-1 1 .45 1 1-.45 1-1 1zm0-1.376c-.206 0-.375.169-.375.375s.169.375.375.375.375-.169.375-.375a.376.376 0 0 0-.375-.375zM24.125 8.638h-6.313a.627.627 0 0 1-.625-.625v-.75c0-.344.281-.625.625-.625h6.313c.344 0 .625.281.625.625v.75a.627.627 0 0 1-.625.625zm-6.313-1.376v.75h6.313v-.75h-6.313z" style="fill:var(--color1, #fff)"/>
    </symbol>
    <symbol id="icon-benefits-p3" viewBox="0 0 32 32">
      <path fill="#1d2939" d="M19.235 7.426a.377.377 0 0 1-.184-.048l-1.903-1.074-1.905 1.074a.374.374 0 0 1-.551-.4l.433-2.142-1.611-1.48a.375.375 0 0 1 .211-.648l2.173-.249.91-1.988a.375.375 0 0 1 .682 0l.908 1.988 2.173.249a.374.374 0 0 1 .211.648l-1.611 1.48.433 2.142a.373.373 0 0 1-.367.449zm-4.61-4.068 1.162 1.068c.097.089.14.222.114.35l-.313 1.546 1.375-.776a.374.374 0 0 1 .368 0l1.373.775-.312-1.546a.373.373 0 0 1 .114-.35l1.162-1.068-1.568-.18a.374.374 0 0 1-.298-.217l-.655-1.435-.656 1.435a.374.374 0 0 1-.298.216l-1.568.18zM10.839 31.177a2.148 2.148 0 0 1-2.146-2.146.375.375 0 0 1 .75 0c0 .77.627 1.397 1.397 1.397 1.299 0 2.597-.002 3.894-.004 1.296-.002 2.591-.004 3.885-.004.803 0 1.163-.59 1.163-1.174s-.359-1.174-1.163-1.174a.375.375 0 0 1 0-.75h1.419c.803 0 1.163-.59 1.163-1.174s-.36-1.174-1.163-1.174a.375.375 0 0 1 0-.75h.455c.37 0 .663-.12.872-.357.185-.209.291-.507.291-.817 0-.585-.36-1.175-1.163-1.175a.375.375 0 0 1 0-.75c.803 0 1.163-.59 1.163-1.174s-.36-1.174-1.163-1.174h-2.64a.932.932 0 0 1-.788-.422.929.929 0 0 1-.082-.895c.209-.496.427-1.001.638-1.489.268-.622.546-1.265.808-1.896.755-1.822.655-3.066-.305-3.802-.495-.345-.912-.492-1.204-.426-.19.043-.352.181-.493.421l-1.502 3.682a3.302 3.302 0 0 1-1.724 1.802c-.468.215-1.408.89-2.298 1.763-1.076 1.055-1.46 1.801-1.46 2.147a.375.375 0 0 1-.75 0c0-.852.916-1.929 1.684-2.682.853-.836 1.885-1.621 2.509-1.908a2.54 2.54 0 0 0 1.344-1.405l1.511-3.706a.355.355 0 0 1 .021-.044c.251-.44.584-.71.991-.802.519-.117 1.11.062 1.804.547l.012.009c1.258.957 1.443 2.535.55 4.69-.264.637-.543 1.282-.812 1.906-.21.487-.427.99-.636 1.485-.029.068-.024.127.016.187s.093.088.165.088h2.64c1.255 0 1.912.967 1.912 1.923 0 .587-.248 1.18-.731 1.548.483.369.731.961.731 1.549 0 .688-.34 1.381-.997 1.717.358.367.542.876.542 1.381 0 .497-.17.963-.478 1.312-.328.371-.779.58-1.312.608.245.34.371.76.371 1.177 0 .956-.657 1.923-1.912 1.923-1.294 0-2.589.002-3.884.004-1.297.002-2.596.004-3.896.004z" style="fill:var(--color2, #1d2939)"/>
      <path fill="#fff" d="M20.493 21.877H18.67a.375.375 0 0 1 0-.75h1.823a.375.375 0 0 1 0 .75zM20.037 24.976h-1.825a.375.375 0 0 1 0-.75h1.825a.375.375 0 0 1 0 .75zM19.583 28.073h-1.825a.375.375 0 0 1 0-.75h1.825a.375.375 0 0 1 0 .75z" style="fill:var(--color1, #fff)"/>
      <path fill="#1d2939" d="M26.766 10.245a.377.377 0 0 1-.184-.048l-1.905-1.074-1.905 1.074a.374.374 0 0 1-.551-.401l.435-2.144-1.61-1.478a.375.375 0 0 1 .211-.649l2.171-.25.91-1.989a.375.375 0 0 1 .682 0l.91 1.989 2.171.25a.375.375 0 0 1 .21.649l-1.61 1.478.435 2.144a.375.375 0 0 1-.367.45zm-2.089-1.928c.064 0 .127.016.184.048l1.375.775-.314-1.547a.373.373 0 0 1 .114-.35l1.162-1.067-1.567-.181a.376.376 0 0 1-.298-.216l-.657-1.436-.657 1.436a.376.376 0 0 1-.298.216l-1.567.181 1.162 1.067c.097.089.14.222.114.35l-.314 1.547 1.375-.775a.377.377 0 0 1 .184-.048zM7.527 10.245a.375.375 0 0 1-.367-.45l.435-2.144-1.61-1.478a.375.375 0 0 1 .21-.648l2.173-.25.908-1.989a.375.375 0 0 1 .682 0l.91 1.989 2.171.25a.374.374 0 0 1 .21.648L11.64 7.651l.433 2.144a.373.373 0 0 1-.551.4L9.617 9.121l-1.905 1.074a.377.377 0 0 1-.184.048zm2.089-1.928c.064 0 .127.016.184.048l1.375.776-.313-1.548a.373.373 0 0 1 .114-.35l1.161-1.067-1.567-.181a.376.376 0 0 1-.298-.216l-.656-1.435-.655 1.435a.376.376 0 0 1-.298.217l-1.568.181 1.162 1.067c.097.089.14.222.114.35l-.314 1.547 1.375-.775a.377.377 0 0 1 .184-.048zM7.703 31.749H5.575a1.74 1.74 0 0 1-1.739-1.737V19.646a1.74 1.74 0 0 1 1.737-1.739h2.129c.959 0 1.739.78 1.739 1.739V30.01a1.74 1.74 0 0 1-1.739 1.739zm-2.13-13.093a.99.99 0 0 0-.988.989v10.366a.99.99 0 0 0 .99.988h2.128a.99.99 0 0 0 .99-.989V19.646a.99.99 0 0 0-.99-.989h-2.13z" style="fill:var(--color2, #1d2939)"/>
    </symbol>    
    <symbol id="icon-mobile-menu" viewBox="0 0 32 32">
      <path d="M4.799 8.001a1.6 1.6 0 0 1 1.6-1.6h19.2a1.6 1.6 0 0 1 0 3.2h-19.2a1.6 1.6 0 0 1-1.6-1.6zM4.799 16.001a1.6 1.6 0 0 1 1.6-1.6h19.2a1.6 1.6 0 0 1 0 3.2h-19.2a1.6 1.6 0 0 1-1.6-1.6zM4.799 24.001a1.6 1.6 0 0 1 1.6-1.6h19.2a1.6 1.6 0 0 1 0 3.2h-19.2a1.6 1.6 0 0 1-1.6-1.6z"/>
    </symbol>
    <symbol id="icon-linkedin" viewBox="0 0 32 32">
      <path d="M31.992 32v-.001H32V20.263c0-5.741-1.236-10.164-7.948-10.164-3.227 0-5.392 1.771-6.276 3.449h-.093v-2.913h-6.364v21.364h6.627V21.42c0-2.785.528-5.479 3.977-5.479 3.399 0 3.449 3.179 3.449 5.657v10.401h6.62zM.528 10.636h6.635V32H.528V10.636zM3.843 0C1.722 0 0 1.721 0 3.843s1.721 3.879 3.843 3.879c2.121 0 3.843-1.757 3.843-3.879A3.846 3.846 0 0 0 3.843 0z"/>
    </symbol>
    <symbol id="icon-footer-logo" viewBox="0 0 132 32">
      <path d="M57.44 30.56c1.6.96 3.36 1.44 5.44 1.44 1.6 0 2.88-.32 4-.8s1.92-1.28 2.4-2.4h.16v2.72h5.44V0h-5.44v11.68h-.16c-.64-.96-1.6-1.6-2.56-2.08s-2.24-.64-3.52-.64c-2.08 0-3.84.48-5.6 1.44-1.6.96-2.88 2.4-3.84 4.16s-1.44 3.84-1.44 6.08c0 2.08.48 4 1.44 5.76.8 1.76 2.08 3.04 3.68 4.16zm1.92-5.44c-1.12-1.28-1.6-2.72-1.6-4.64s.48-3.36 1.6-4.64c1.12-1.28 2.56-1.92 4.32-1.92s3.36.64 4.32 1.92c1.12 1.28 1.6 2.72 1.6 4.64s-.48 3.36-1.6 4.64c-1.12 1.28-2.56 1.76-4.32 1.76s-3.2-.64-4.32-1.76zm24.48 5.44c1.76.96 3.68 1.44 5.76 1.44 1.76 0 3.52-.32 5.12-.96s3.04-1.6 4-2.72l-3.2-3.36c-.8.64-1.76 1.28-2.72 1.44-.96.32-2.08.48-3.2.48-1.6 0-3.04-.48-4.16-1.28-1.12-.96-1.76-2.08-1.92-3.52h16.32l.16-1.6c0-2.24-.48-4.32-1.28-6.08s-2.08-3.04-3.68-4.16c-1.6-.96-3.52-1.44-5.6-1.44s-4 .48-5.6 1.44c-1.76.96-3.04 2.4-4 4.16s-1.44 3.68-1.44 5.92c0 2.24.48 4.32 1.44 6.08.96 1.92 2.4 3.2 4 4.16zm9.12-15.52c.96.8 1.6 1.76 1.6 3.04H83.68c.16-1.28.8-2.24 1.92-3.04s2.4-1.12 3.84-1.12 2.56.32 3.52 1.12zm10.08-2.24c2.72-2.56 5.92-3.84 9.76-3.84 3.04 0 5.44.8 7.2 2.4s2.72 3.84 2.72 6.72v13.44h-5.44v-3.2h-.16c-.96 1.28-2.08 2.24-3.36 2.72-1.28.64-2.56.96-4.16.96-1.28 0-2.56-.32-3.68-.8s-1.92-1.28-2.72-2.4c-.64-.96-.96-2.24-.96-3.68 0-2.08.8-3.68 2.4-4.96s3.84-1.92 6.72-1.92h5.92v-.48c0-1.28-.48-2.24-1.44-3.04-1.12-.64-2.24-.96-3.84-.96-2.24 0-4.16.8-5.76 2.4l-3.2-3.36zm4.64 12.16c0 .64.32 1.28.8 1.76.64.48 1.44.8 2.72.8s2.24-.16 3.04-.64c.96-.48 1.6-1.12 2.08-1.92s.8-1.6.8-2.4v-.16h-5.92c-1.28 0-2.08.32-2.72.8-.48.48-.8 1.12-.8 1.76zM125.92 0h5.44v31.52h-5.44V0zM43.04 14.88l3.04 4.64L52.8 9.6h-6.24l-3.52 5.28zm3.04 6.08-3.04 4.64 3.84 5.92h6.24l-7.04-10.56zM27.52 10.08h-5.44v21.44h5.44V10.08zM22.4.96c-.64.64-.96 1.44-.96 2.24s.32 1.6.96 2.24c.64.64 1.44.96 2.24.96.96 0 1.6-.32 2.24-.96s.96-1.44.96-2.24c0-.96-.32-1.6-.96-2.24C26.4.32 25.6 0 24.8 0c-.96 0-1.76.32-2.4.96zm-3.84.16H0v30.4h5.6V20.16h12V15.2h-12V6.24h12.96V1.12zm11.68 8.32 7.2 10.72-7.52 11.2h6.24l7.36-11.2-7.04-10.72h-6.24z"/>
    </symbol>
    <symbol id="icon-intro-backintime" viewBox="0 0 32 32">
      <path fill="none" stroke="#98a2b3" stroke-linecap="round" stroke-linejoin="round" stroke-miterlimit="10" stroke-width="1.25" d="M27.317 5.577a15.331 15.331 0 0 1 4.068 10.422c0 8.497-6.888 15.386-15.386 15.386S.613 24.497.613 15.999C.613 7.502 7.501.614 15.999.614c.635 0 1.261.038 1.876.113" style="stroke:var(--color1, #98a2b3)"/>
      <path fill="none" stroke="#98a2b3" stroke-linecap="round" stroke-linejoin="round" stroke-miterlimit="10" stroke-width="1.25" d="M9.975 6.422c4.371-2.755 10.217-2.229 14.024 1.579 4.418 4.418 4.418 11.58 0 15.998s-11.58 4.418-15.998 0c-3.813-3.813-4.335-9.671-1.566-14.043M27.207 7.864V5.489h2.375" style="stroke:var(--color1, #98a2b3)"/>
      <path fill="none" stroke="#008272" stroke-linecap="round" stroke-linejoin="round" stroke-miterlimit="10" stroke-width="1.25" d="M14.471 15.999a1.528 1.528 0 1 0 3.056 0 1.528 1.528 0 0 0-3.056 0zM24.896 16.009h-.771M7.102 15.99h.771M16.008 7.104v.771M15.988 24.895v-.771M14.919 14.919l-2.494-2.494M17.078 14.919l4.65-4.65" style="stroke:var(--color2, #008272)"/>
    </symbol>
    <symbol id="icon-intro-performance" viewBox="0 0 32 32">
      <path fill="#98a2b3" d="M16 5.714c-5.672 0-10.283 4.61-10.283 10.286 0 5.672 4.61 10.286 10.283 10.286S26.286 21.673 26.286 16c0-5.675-4.613-10.286-10.286-10.286zm0 19.429c-5.057 0-9.146-4.086-9.146-9.143S10.943 6.857 16 6.857s9.143 4.086 9.143 9.143A9.135 9.135 0 0 1 16 25.143z" style="fill:var(--color1, #98a2b3)"/>
      <path fill="#98a2b3" d="M31.723 13.038a.574.574 0 0 0-.562-.47h-1.884a14.108 14.108 0 0 0-1.458-3.536l1.324-1.327a.57.57 0 0 0 .069-.729 15.925 15.925 0 0 0-4.187-4.187.571.571 0 0 0-.726.066l-1.277 1.28c-1.093-.64-2.366-1.093-3.592-1.411V.841a.573.573 0 0 0-.467-.563 16.024 16.024 0 0 0-2.965-.277c-.997.003-1.985.101-2.962.292a.568.568 0 0 0-.464.559v1.872a14.16 14.16 0 0 0-3.527 1.467L7.703 2.855a.572.572 0 0 0-.726-.066A16.015 16.015 0 0 0 2.79 6.976a.571.571 0 0 0 .069.726l1.333 1.33a14.117 14.117 0 0 0-1.461 3.536H.85a.576.576 0 0 0-.562.464A16.04 16.04 0 0 0 .002 16c.003.994.098 1.988.286 2.965a.576.576 0 0 0 .562.464h1.881a14.04 14.04 0 0 0 1.461 3.527l-1.333 1.339a.573.573 0 0 0-.069.726 16.103 16.103 0 0 0 4.187 4.194.567.567 0 0 0 .726-.069l1.342-1.336a14.107 14.107 0 0 0 3.527 1.467v1.875c0 .273.194.509.464.559.977.187 1.965.289 2.962.289a16.25 16.25 0 0 0 2.968-.289.567.567 0 0 0 .464-.559v-1.875a14.123 14.123 0 0 0 3.527-1.467l1.342 1.336a.57.57 0 0 0 .726.069 15.982 15.982 0 0 0 4.187-4.194.572.572 0 0 0-.069-.726l-1.336-1.339a14.02 14.02 0 0 0 1.47-3.518l1.875-.009a.577.577 0 0 0 .562-.464 15.791 15.791 0 0 0 .009-5.926zm-1.086 5.248h-1.809a.566.566 0 0 0-.559.446 12.637 12.637 0 0 1-1.664 4.009.572.572 0 0 0 .078.709l1.313 1.316a14.71 14.71 0 0 1-3.232 3.229l-1.313-1.316a.575.575 0 0 0-.712-.075 12.572 12.572 0 0 1-4.003 1.667.572.572 0 0 0-.449.556v1.842c-.756.122-1.518.181-2.286.184a14.768 14.768 0 0 1-2.283-.184l-.003-1.842c0-.268-.187-.5-.446-.556a12.543 12.543 0 0 1-4.003-1.667.576.576 0 0 0-.714.075l-1.313 1.315a14.774 14.774 0 0 1-3.232-3.229l1.315-1.316a.573.573 0 0 0 .075-.709 12.608 12.608 0 0 1-1.661-4.009.573.573 0 0 0-.562-.446h-1.81c-.119-.756-.217-1.515-.22-2.283a14.92 14.92 0 0 1 .19-2.292h1.839a.57.57 0 0 0 .562-.44 12.571 12.571 0 0 1 1.661-4.009.57.57 0 0 0-.075-.711L4.006 7.231a14.647 14.647 0 0 1 3.223-3.229l1.322 1.315c.19.19.488.223.714.081a12.566 12.566 0 0 1 4.003-1.667.571.571 0 0 0 .446-.556v-1.81c.759-.122 1.518-.22 2.286-.223.768 0 1.53.095 2.286.214v1.813c0 .271.184.503.446.562 1.426.316 2.783.875 4.012 1.658.226.143.521.11.712-.077l1.25-1.25a14.774 14.774 0 0 1 3.232 3.229l-1.247 1.253a.57.57 0 0 0-.08.711 12.617 12.617 0 0 1 1.661 4.009.569.569 0 0 0 .556.446h1.816c.115.759.213 1.521.213 2.289-.003.768-.098 1.527-.22 2.286z" style="fill:var(--color1, #98a2b3)"/>
      <path fill="#008272" d="M15.971 15.429h.03a.56.56 0 0 1 .568.571c0 .321-.247.571-.568.571s-.575-.25-.575-.571c0-.312.235-.556.545-.571zM16 9.143a6.864 6.864 0 0 0-6.318 9.527c.348.818.848 1.56 1.467 2.178a.567.567 0 0 0 .809 0 .574.574 0 0 0 0-.81A5.697 5.697 0 0 1 10.285 16a5.702 5.702 0 0 1 5.714-5.711c1.375 0 2.634.479 3.619 1.283l-2.881 2.884a1.702 1.702 0 0 0-.738-.17A1.72 1.72 0 0 0 14.288 16c0 .937.771 1.714 1.711 1.714s1.714-.777 1.714-1.714a1.69 1.69 0 0 0-.17-.735l.003-.003 2.881-2.881a5.708 5.708 0 0 1 .835 5.845 5.687 5.687 0 0 1-1.223 1.813c-.223.226-.223.587 0 .81s.584.223.807 0a6.836 6.836 0 0 0 .387-9.274l.312-.312a.573.573 0 0 0-.81-.809l-.315.312a6.827 6.827 0 0 0-4.422-1.623z" style="fill:var(--color2, #008272)"/>
    </symbol>
    <symbol id="icon-mobile-menu-close" viewBox="0 0 32 32">
      <path fill="#667085" style="fill: var(--color1, #667085)" d="M7.151 7.151c0.469-0.469 1.228-0.469 1.697 0l7.151 7.151 7.152-7.151c0.469-0.469 1.228-0.469 1.697 0s0.469 1.228 0 1.697l-7.151 7.151 7.151 7.152c0.469 0.469 0.469 1.228 0 1.697s-1.228 0.469-1.697 0l-7.152-7.151-7.151 7.151c-0.469 0.469-1.228 0.469-1.697 0s-0.469-1.228 0-1.697l7.151-7.152-7.151-7.151c-0.469-0.469-0.469-1.228 0-1.697z"></path>
    </symbol>
    <symbol id="icon-roadmap-flag" viewBox="0 0 32 32">
      <path fill="#008272" d="M24.027 16.44 22.4 14.813a1.855 1.855 0 0 1-.627-1.373c-.027-.6.213-1.2.653-1.64l1.6-1.6c1.387-1.387 1.907-2.72 1.467-3.773-.427-1.04-1.747-1.613-3.693-1.613H7.867V3.667c0-.547-.453-1-1-1s-1 .453-1 1v24.667c0 .547.453 1 1 1s1-.453 1-1v-6.507H21.8c1.92 0 3.213-.587 3.653-1.64s-.067-2.373-1.427-3.747z" style="fill:var(--color1, #008272)"/>
    </symbol>
    <symbol id="icon-roadmap-postmvp" viewBox="0 0 32 32">
      <path fill="#fff" d="M15.999 26.333h-3.573a3.62 3.62 0 0 1-3.427-2.373c-.547-1.44-.147-3.027 1.013-4.053l10.653-9.32c.64-.56.653-1.32.467-1.84-.2-.52-.707-1.08-1.56-1.08h-3.573c-.547 0-1-.453-1-1s.453-1 1-1h3.573a3.62 3.62 0 0 1 3.427 2.373c.547 1.44.147 3.027-1.013 4.053l-10.653 9.32c-.64.56-.653 1.32-.467 1.84.2.52.707 1.08 1.56 1.08h3.573c.547 0 1 .453 1 1s-.453 1-1 1zM26.664 20h-4a2.675 2.675 0 0 0-2.667 2.667v4c0 1.467 1.2 2.667 2.667 2.667h4c1.467 0 2.667-1.2 2.667-2.667v-4c0-1.467-1.2-2.667-2.667-2.667zm-1.987 6c-.733 0-1.333-.6-1.333-1.333s.587-1.333 1.333-1.333h.013c.733 0 1.333.6 1.333 1.333S25.423 26 24.676 26zM7.292 2.667c-2.573 0-4.667 2.093-4.667 4.667s2.093 4.667 4.667 4.667c2.573 0 4.667-2.093 4.667-4.667s-2.08-4.667-4.667-4.667zm.053 6c-.733 0-1.333-.6-1.333-1.333s.587-1.333 1.333-1.333h.013c.733 0 1.333.6 1.333 1.333s-.6 1.333-1.347 1.333z" style="fill:var(--color2, #fff)"/>
    </symbol>    
    <symbol id="icon-roadmap-list-item" viewBox="0 0 32 32">
      <path fill="#cd954c" stroke="#b88139" stroke-width="3.556" d="M16 30.222C8.145 30.222 1.778 23.855 1.778 16S8.145 1.778 16 1.778c7.855 0 14.222 6.367 14.222 14.222S23.855 30.222 16 30.222zm7.535-17.951a1.58 1.58 0 0 0-2.428-2.024l-5.686 6.823c-.548.657-.856 1.021-1.102 1.245l-.009.009-.01-.008c-.265-.201-.605-.535-1.21-1.14l-2.294-2.294a1.58 1.58 0 0 0-2.235 2.235l2.358 2.358c.516.516 1.012 1.013 1.474 1.362.517.391 1.195.759 2.063.72s1.51-.467 1.989-.903c.428-.39.878-.929 1.345-1.49l5.744-6.893z" style="fill:var(--color4, #cd954c);stroke:var(--color3, #b88139)"/>
      <path fill="#303030" d="M23.533 12.276a1.58 1.58 0 0 0-2.428-2.024l-5.686 6.823c-.548.657-.856 1.021-1.102 1.245l-.009.009-.01-.008c-.265-.201-.605-.535-1.21-1.14l-2.294-2.294a1.58 1.58 0 0 0-2.235 2.235l2.358 2.358c.516.516 1.012 1.013 1.474 1.362.517.391 1.195.759 2.063.72s1.51-.467 1.989-.903c.428-.39.878-.929 1.345-1.49l.058-.07 5.686-6.823z" style="fill:var(--color5, #303030)"/>
    </symbol>    
    <symbol id="icon-roadmap-snake" viewBox="0 0 10 32">
      <path fill="#303030" d="M17.94 11.394v9.05H16.3v-7.455h-.053l-2.117 1.352v-1.502l2.249-1.445h1.56z" style="fill:var(--color5, #303030)"/>
    </symbol>
    <symbol id="icon-roadmap-launch" viewBox="0 0 32 32">
      <path fill="#fff" d="M23.334 21.333a2 2 0 1 0-.001 3.999 2 2 0 0 0 .001-3.999zm-4.667 2a4.667 4.667 0 1 1 9.334 0 4.667 4.667 0 0 1-9.334 0z" style="fill:var(--color1, #fff)"/>
      <path fill="#fff" d="M25.058 25.057a1.333 1.333 0 0 1 1.886 0l2 2a1.333 1.333 0 1 1-1.886 1.886l-2-2a1.333 1.333 0 0 1 0-1.886zM5.333 13.333c0-5.028 0-7.542 1.562-9.105S10.971 2.666 16 2.666c5.028 0 7.542 0 9.105 1.562s1.562 4.076 1.562 9.105v4.225a6.667 6.667 0 1 0-6.364 11.714c-1.186.061-2.6.061-4.302.061-5.028 0-7.543 0-9.105-1.562s-1.562-4.076-1.562-9.105v-5.333zm5.333-6.666a1.333 1.333 0 0 0 0 2.666h5.333a1.333 1.333 0 0 0 0-2.666h-5.333zm0 5.333a1.333 1.333 0 0 0 0 2.666h8a1.333 1.333 0 0 0 0-2.666h-8zm0 5.333a1.333 1.333 0 0 0 0 2.666h4a1.333 1.333 0 0 0 0-2.666h-4z" style="fill:var(--color1, #fff)"/>
    </symbol>    
    <symbol id="icon-roadmap-start" viewBox="0 0 104 32">
      <path fill="#008272" d="M0 0h81.778v32H0V0z" style="fill:var(--color3, #008272)"/>
      <path fill="#fff" d="M22.805 13.468c-.071-.597-.357-1.06-.86-1.391s-1.12-.495-1.85-.495c-.534 0-1.002.086-1.402.259-.397.173-.707.41-.931.713-.22.302-.33.646-.33 1.031 0 .322.077.599.23.831.157.228.357.418.601.572.244.149.499.273.766.371.267.094.513.171.736.23l1.226.33c.314.083.664.196 1.049.342.389.145.76.344 1.114.595.357.247.652.566.884.955s.348.866.348 1.432c0 .652-.171 1.241-.513 1.768-.338.526-.833.945-1.485 1.255-.648.31-1.436.466-2.363.466-.864 0-1.613-.14-2.245-.418-.628-.279-1.123-.668-1.485-1.167a3.322 3.322 0 0 1-.607-1.738h1.508c.039.456.192.833.46 1.131.271.295.613.515 1.025.66.416.141.864.212 1.343.212.558 0 1.059-.09 1.502-.271.444-.185.796-.44 1.055-.766.259-.33.389-.715.389-1.155 0-.401-.112-.727-.336-.978s-.519-.456-.884-.613a9.168 9.168 0 0 0-1.184-.412l-1.485-.424c-.943-.271-1.689-.658-2.239-1.161s-.825-1.161-.825-1.974c0-.676.183-1.265.548-1.768.369-.507.864-.899 1.485-1.178.625-.283 1.322-.424 2.092-.424.778 0 1.469.139 2.074.418.605.275 1.084.652 1.438 1.131.357.479.546 1.023.566 1.632h-1.414zm3.322-1.721v-1.296h9.051v1.296h-3.795v10.771h-1.461V11.747h-3.795zm10.391 10.772h-1.532l4.431-12.067h1.508l4.431 12.067h-1.532l-3.606-10.158h-.094l-3.606 10.158zm.565-4.714h6.175v1.296h-6.175v-1.296zm10.153 4.714V10.452h4.078c.943 0 1.717.161 2.322.483.605.318 1.053.756 1.343 1.314s.436 1.192.436 1.903-.145 1.341-.436 1.891c-.291.55-.737.982-1.338 1.296-.601.31-1.369.465-2.304.465h-3.3v-1.32h3.252c.644 0 1.163-.094 1.556-.283.397-.189.684-.456.86-.801.181-.35.271-.766.271-1.249s-.09-.905-.271-1.267a1.853 1.853 0 0 0-.866-.837c-.397-.2-.921-.301-1.573-.301h-2.569v10.771h-1.461zm5.68-5.421 2.97 5.421h-1.697l-2.923-5.421h1.65zm4.273-5.351v-1.296h9.05v1.296h-3.795v10.771h-1.461V11.747h-3.795z" style="fill:var(--color1, #fff)"/>
      <path fill="#008272" d="M104.296 16.028 81.777 32l.034-32 22.485 16.028z" style="fill:var(--color3, #008272)"/>
    </symbol>
    <symbol id="icon-roadmap-keepgoing" viewBox="0 0 290 32">
      <path fill="#008272" d="M0 0h267.852v32H0V0z" style="fill:var(--color3, #008272)"/>
      <path fill="#fff" d="M59.188 22.613c-.291 0-.54-.104-.748-.312s-.312-.458-.312-.748c0-.291.104-.54.312-.748s.458-.312.748-.312c.291 0 .54.104.748.312s.312.458.312.748a1 1 0 0 1-.147.53 1.098 1.098 0 0 1-.383.389 1.013 1.013 0 0 1-.53.141zm4.569 0c-.291 0-.54-.104-.748-.312s-.312-.458-.312-.748c0-.291.104-.54.312-.748s.458-.312.748-.312.54.104.748.312c.208.208.312.458.312.748a1 1 0 0 1-.147.53 1.098 1.098 0 0 1-.383.389 1.013 1.013 0 0 1-.53.141zm4.57 0c-.291 0-.54-.104-.748-.312s-.312-.458-.312-.748c0-.291.104-.54.312-.748s.458-.312.748-.312c.291 0 .54.104.748.312s.312.458.312.748a1 1 0 0 1-.147.53 1.098 1.098 0 0 1-.383.389 1.013 1.013 0 0 1-.53.141zm4.239-.094h-1.532l4.431-12.067h1.508l4.431 12.067h-1.532l-3.606-10.158h-.094l-3.606 10.158zm.566-4.714h6.175v1.296h-6.175v-1.296zm19.721-7.354v12.067h-1.414l-6.576-9.475h-.118v9.475h-1.461V10.451h1.414l6.599 9.498h.118v-9.498h1.438zm6.648 12.068h-3.724V10.452h3.889c1.171 0 2.172.242 3.005.725.833.479 1.471 1.169 1.915 2.068.444.896.666 1.968.666 3.217 0 1.257-.224 2.339-.672 3.247a4.791 4.791 0 0 1-1.956 2.086c-.856.483-1.897.725-3.123.725zm-2.262-1.297h2.168c.998 0 1.825-.192 2.481-.577s1.145-.933 1.467-1.644c.322-.711.483-1.558.483-2.54 0-.974-.159-1.813-.477-2.516-.318-.707-.793-1.249-1.426-1.626-.632-.381-1.42-.572-2.363-.572h-2.333v9.475zm15.131 1.297V10.452h1.461v5.986h.141l5.421-5.986h1.909l-5.067 5.444 5.067 6.623h-1.767l-4.196-5.609-1.508 1.697v3.912h-1.461zm10.824 0V10.452h7.283v1.296h-5.822v4.077h5.445v1.296h-5.445v4.101h5.915v1.296h-7.377zm9.917 0V10.452h7.283v1.296h-5.822v4.077h5.445v1.296h-5.445v4.101h5.915v1.296h-7.377zm9.916 0V10.452h4.078c.946 0 1.72.171 2.321.513.606.338 1.054.795 1.344 1.373s.436 1.222.436 1.933c0 .711-.146 1.357-.436 1.939-.287.581-.731 1.045-1.332 1.391-.601.342-1.37.513-2.31.513h-2.921v-1.296h2.875c.648 0 1.169-.112 1.561-.336.393-.224.678-.526.855-.907.181-.385.271-.819.271-1.302s-.09-.915-.271-1.296a1.934 1.934 0 0 0-.86-.896c-.397-.22-.923-.33-1.579-.33h-2.569v10.771h-1.461zm23.449-8.297a4.287 4.287 0 0 0-.513-1.067 3.304 3.304 0 0 0-.748-.813 3.143 3.143 0 0 0-.979-.513 3.892 3.892 0 0 0-1.202-.177c-.715 0-1.364.185-1.95.554s-1.051.913-1.397 1.632c-.345.719-.518 1.601-.518 2.646s.174 1.927.524 2.646c.35.719.824 1.263 1.421 1.632a3.75 3.75 0 0 0 2.015.554c.691 0 1.3-.147 1.826-.442.53-.299.942-.719 1.237-1.261.299-.546.448-1.188.448-1.927l.448.094h-3.63v-1.296h4.596v1.296c0 .994-.212 1.858-.636 2.593a4.394 4.394 0 0 1-1.743 1.709c-.74.401-1.587.601-2.546.601-1.069 0-2.008-.251-2.817-.754-.805-.503-1.433-1.218-1.886-2.145-.447-.927-.671-2.027-.671-3.3 0-.955.127-1.813.383-2.575.26-.766.625-1.418 1.096-1.956a4.781 4.781 0 0 1 1.673-1.237 5.162 5.162 0 0 1 2.126-.43c.636 0 1.23.096 1.78.289a4.805 4.805 0 0 1 1.479.807 4.69 4.69 0 0 1 1.69 2.84h-1.508zm14.264 2.263c0 1.273-.23 2.373-.69 3.3s-1.09 1.642-1.892 2.145c-.801.503-1.716.754-2.746.754-1.029 0-1.944-.251-2.745-.754-.802-.503-1.433-1.218-1.892-2.145-.46-.927-.69-2.027-.69-3.3s.23-2.373.69-3.3c.459-.927 1.089-1.642 1.892-2.145.801-.503 1.716-.754 2.745-.754 1.03 0 1.945.251 2.746.754s1.432 1.218 1.892 2.145c.46.927.69 2.027.69 3.3zm-1.416 0c0-1.045-.174-1.927-.524-2.646-.346-.719-.815-1.263-1.408-1.632a3.653 3.653 0 0 0-1.98-.554 3.68 3.68 0 0 0-1.985.554c-.589.369-1.058.913-1.408 1.632-.346.719-.519 1.601-.519 2.646s.173 1.927.519 2.646c.35.719.819 1.263 1.408 1.632a3.682 3.682 0 0 0 1.985.554c.731 0 1.391-.185 1.98-.554.593-.369 1.062-.913 1.408-1.632.35-.719.524-1.601.524-2.646zm5.334-6.034v12.067h-1.461V10.451h1.461zm12.499 0v12.067h-1.414l-6.577-9.475h-.117v9.475h-1.461V10.451h1.414l6.599 9.498h.119v-9.498h1.438zm11.172 3.771a4.25 4.25 0 0 0-.512-1.067 3.327 3.327 0 0 0-.749-.813c-.287-.224-.613-.395-.978-.513s-.766-.177-1.202-.177c-.715 0-1.365.185-1.951.554s-1.05.913-1.396 1.632c-.346.719-.519 1.601-.519 2.646s.175 1.927.525 2.646c.35.719.823 1.263 1.42 1.632s1.269.554 2.015.554c.692 0 1.3-.147 1.826-.442a3.146 3.146 0 0 0 1.239-1.261c.297-.546.447-1.188.447-1.927l.448.094h-3.629v-1.296h4.596v1.296c0 .994-.212 1.858-.636 2.593a4.406 4.406 0 0 1-1.745 1.709c-.738.401-1.587.601-2.546.601-1.068 0-2.007-.251-2.816-.754-.806-.503-1.434-1.218-1.886-2.145-.448-.927-.672-2.027-.672-3.3 0-.955.128-1.813.383-2.575.26-.766.625-1.418 1.096-1.956s1.029-.951 1.673-1.237 1.353-.43 2.127-.43c.636 0 1.229.096 1.779.289a4.805 4.805 0 0 1 1.479.807c.436.346.8.76 1.09 1.243.29.479.491 1.012.601 1.597h-1.509z" style="fill:var(--color1, #fff)"/>
      <path fill="#008272" d="M290.37 16.028 267.851 32l.034-32 22.484 16.028z" style="fill:var(--color3, #008272)"/>
    </symbol>
    <symbol id="icon-roadmap-mvp" viewBox="0 0 32 32">
      <path fill="#fff" d="M7.429 2.62a1.524 1.524 0 0 0-.238 2.142l5.334 6.667-5.334 6.667A1.524 1.524 0 0 0 9.571 20l6.095-7.619a1.525 1.525 0 0 0 0-1.904L9.571 2.858a1.524 1.524 0 0 0-2.142-.238zM24.571 11.762c.657.526.764 1.485.238 2.142l-5.334 6.667 5.334 6.667a1.524 1.524 0 0 1-2.38 1.904l-6.095-7.619a1.525 1.525 0 0 1 0-1.904L22.429 12a1.524 1.524 0 0 1 2.142-.238z" style="fill:var(--color1, #fff)"/>
    </symbol>
    <symbol id="icon-roadmap-arrow-left" viewBox="0 0 32 32">
      <path fill="#b88139" stroke="#b88139" stroke-linecap="round" stroke-linejoin="round" stroke-width="1.6" d="M20.848 7.151a1.2 1.2 0 0 0-1.697 0l-8 8a1.2 1.2 0 0 0 0 1.697l8 8a1.2 1.2 0 1 0 1.697-1.697l-7.151-7.152 7.151-7.151a1.2 1.2 0 0 0 0-1.697z" style="fill:var(--color1, #b88139);stroke:var(--color1, #b88139)"/>
    </symbol>
    <symbol id="icon-roadmap-arrow-down" viewBox="0 0 32 32">
      <path fill="#b88139" stroke="#b88139" stroke-linecap="round" stroke-linejoin="round" stroke-width="1.6" d="M24.848 11.151a1.2 1.2 0 0 1 0 1.697l-8 8a1.2 1.2 0 0 1-1.697 0l-8-8a1.2 1.2 0 1 1 1.697-1.697l7.151 7.151 7.152-7.151a1.2 1.2 0 0 1 1.697 0z" style="fill:var(--color1, #b88139);stroke:var(--color1, #b88139)"/>
    </symbol>
    <symbol id="icon-roadmap-arrow-right" viewBox="0 0 32 32">
      <path fill="#b88139" stroke="#b88139" stroke-linecap="round" stroke-linejoin="round" stroke-width="1.6" d="M11.151 7.151a1.2 1.2 0 0 1 1.697 0l8 8a1.2 1.2 0 0 1 0 1.697l-8 8a1.2 1.2 0 1 1-1.697-1.697l7.151-7.152-7.151-7.151a1.2 1.2 0 0 1 0-1.697z" style="fill:var(--color1, #b88139);stroke:var(--color1, #b88139)"/>
    </symbol>
    <symbol id="icon-roadmap-p10" viewBox="0 0 32 32">
      <path fill="#fff" stroke="#b88139" stroke-width="1.778" d="M31.111 16c0 8.346-6.765 15.111-15.111 15.111S.889 24.346.889 16 7.654.889 16 .889 31.111 7.654 31.111 16z" style="fill:var(--color2, #fff);stroke:var(--color1, #b88139)"/>
      <path fill="#303030" d="M13.79 11.394v9.05h-1.639v-7.455h-.053l-2.117 1.352v-1.502l2.249-1.445h1.56zm5.643 9.223c-.728 0-1.352-.184-1.874-.552-.518-.371-.918-.906-1.198-1.604-.277-.701-.415-1.545-.415-2.532.003-.987.143-1.827.42-2.519.28-.695.679-1.226 1.198-1.591.521-.365 1.145-.548 1.869-.548s1.348.183 1.869.548c.521.365.921.896 1.198 1.591.28.695.42 1.535.42 2.519 0 .99-.14 1.835-.42 2.537-.277.698-.676 1.231-1.198 1.6-.518.368-1.142.552-1.869.552zm0-1.383c.566 0 1.012-.278 1.339-.835.33-.56.495-1.383.495-2.47 0-.719-.075-1.323-.225-1.812s-.362-.857-.636-1.105a1.395 1.395 0 0 0-.972-.376c-.563 0-1.008.28-1.335.84-.327.557-.492 1.374-.495 2.453-.003.722.069 1.329.217 1.821.15.492.362.863.636 1.114.274.247.6.371.977.371z" style="fill:var(--color3, #303030)"/>
    </symbol>
    <symbol id="icon-roadmap-p9" viewBox="0 0 32 32">
      <path fill="#fff" stroke="#b88139" stroke-width="1.778" d="M31.111 16c0 8.346-6.765 15.111-15.111 15.111S.889 24.346.889 16 7.654.889 16 .889 31.111 7.654 31.111 16z" style="fill:var(--color2, #fff);stroke:var(--color1, #b88139)"/>
      <path fill="#303030" d="M15.912 11.27c.433.003.854.08 1.264.23.413.147.784.389 1.114.725.33.333.592.779.787 1.339s.292 1.252.292 2.077c.003.778-.08 1.473-.248 2.086-.165.61-.402 1.125-.711 1.547s-.682.742-1.118.963a3.21 3.21 0 0 1-1.472.331c-.572 0-1.078-.112-1.52-.336-.439-.224-.794-.53-1.065-.919s-.438-.834-.499-1.335h1.613c.082.359.25.645.504.857.256.209.579.314.968.314.627 0 1.111-.273 1.449-.817s.508-1.302.508-2.271h-.062a2.325 2.325 0 0 1-.561.672c-.23.186-.491.328-.782.429-.289.1-.595.15-.919.15-.53 0-1.008-.127-1.432-.38a2.77 2.77 0 0 1-1.003-1.043c-.245-.442-.368-.947-.371-1.516 0-.589.135-1.118.406-1.587a2.955 2.955 0 0 1 1.145-1.114c.489-.274 1.061-.408 1.715-.402zm.004 1.326c-.318 0-.605.078-.862.234a1.657 1.657 0 0 0-.601.628 1.795 1.795 0 0 0-.217.879c.003.321.075.613.217.875.144.262.34.47.588.623.25.153.536.23.857.23a1.631 1.631 0 0 0 1.206-.517c.156-.165.277-.352.362-.561.088-.209.131-.43.128-.663 0-.309-.074-.595-.221-.857a1.7 1.7 0 0 0-.597-.632 1.573 1.573 0 0 0-.862-.239z" style="fill:var(--color3, #303030)"/>
    </symbol>
    <symbol id="icon-roadmap-p8" viewBox="0 0 32 32">
      <path fill="#fff" stroke="#b88139" stroke-width="1.778" d="M31.111 16c0 8.346-6.765 15.111-15.111 15.111S.889 24.346.889 16 7.654.889 16 .889 31.111 7.654 31.111 16z" style="fill:var(--color2, #fff);stroke:var(--color1, #b88139)"/>
      <path fill="#303030" d="M16.005 20.568c-.657 0-1.24-.11-1.75-.331-.507-.221-.904-.523-1.193-.906a2.125 2.125 0 0 1-.424-1.313c-.003-.38.08-.729.247-1.047s.395-.583.681-.795c.289-.215.61-.352.963-.411v-.062a1.91 1.91 0 0 1-1.131-.711 2.052 2.052 0 0 1-.424-1.295c-.003-.466.127-.881.389-1.246s.622-.653 1.078-.862c.457-.212.978-.318 1.564-.318.58 0 1.097.106 1.551.318.457.209.816.496 1.078.862.265.365.398.781.398 1.246 0 .489-.146.921-.438 1.295a1.91 1.91 0 0 1-1.118.711v.062c.354.059.672.196.955.411.286.212.513.477.681.795.171.318.256.667.256 1.047 0 .489-.144.927-.433 1.313-.289.383-.686.685-1.193.906-.504.221-1.083.331-1.737.331zm0-1.264c.339 0 .633-.057.884-.172.25-.118.445-.283.583-.495s.209-.457.212-.734a1.376 1.376 0 0 0-.225-.765 1.477 1.477 0 0 0-.597-.526 1.867 1.867 0 0 0-.857-.19c-.324 0-.613.063-.866.19s-.454.302-.601.526a1.344 1.344 0 0 0-.212.765c-.003.277.065.521.203.734.139.209.333.373.583.491.253.118.551.177.893.177zm0-4.123c.277 0 .521-.056.734-.168.215-.112.384-.268.508-.468s.187-.432.19-.694a1.294 1.294 0 0 0-.186-.681 1.202 1.202 0 0 0-.504-.455 1.618 1.618 0 0 0-.742-.164 1.67 1.67 0 0 0-.756.164 1.202 1.202 0 0 0-.504.455 1.255 1.255 0 0 0-.172.681c-.003.262.056.493.177.694.124.197.293.354.508.468.218.112.467.168.747.168z" style="fill:var(--color3, #303030)"/>
    </symbol>
    <symbol id="icon-roadmap-p7" viewBox="0 0 32 32">
      <path fill="#fff" stroke="#b88139" stroke-width="1.778" d="M31.111 16c0 8.346-6.765 15.111-15.111 15.111S.889 24.346.889 16 7.654.889 16 .889 31.111 7.654 31.111 16z" style="fill:var(--color2, #fff);stroke:var(--color1, #b88139)"/>
      <path fill="#303030" d="m13.928 20.444 3.849-7.619v-.062h-4.468v-1.37h6.165v1.401l-3.845 7.65h-1.701z" style="fill:var(--color3, #303030)"/>
    </symbol>
    <symbol id="icon-roadmap-p6" viewBox="0 0 32 32">
      <path fill="#fff" stroke="#b88139" stroke-width="1.778" d="M31.111 16c0 8.346-6.765 15.111-15.111 15.111S.889 24.346.889 16 7.654.889 16 .889 31.111 7.654 31.111 16z" style="fill:var(--color2, #fff);stroke:var(--color1, #b88139)"/>
      <path fill="#303030" d="M16.084 20.568a3.828 3.828 0 0 1-1.268-.225 2.983 2.983 0 0 1-1.114-.729c-.33-.339-.592-.788-.787-1.348-.194-.563-.29-1.259-.287-2.09 0-.775.082-1.466.247-2.073s.402-1.12.711-1.538a3.139 3.139 0 0 1 1.118-.963 3.225 3.225 0 0 1 1.472-.331c.569 0 1.072.112 1.511.336.442.224.798.53 1.07.919.271.386.439.822.504 1.308h-1.613a1.462 1.462 0 0 0-.508-.831c-.253-.209-.575-.314-.963-.314-.628 0-1.111.272-1.45.818-.336.545-.505 1.293-.508 2.245h.062c.144-.259.331-.482.561-.667s.489-.329.778-.429c.292-.103.6-.155.924-.155.53 0 1.006.127 1.427.38.424.253.76.603 1.008 1.047.247.442.37.949.367 1.52a3.115 3.115 0 0 1-.407 1.604c-.274.471-.655.843-1.145 1.114s-1.059.405-1.71.402zm-.009-1.326c.321 0 .608-.078.862-.234s.454-.367.601-.632.219-.563.217-.893a1.76 1.76 0 0 0-.212-.879c-.141-.262-.337-.47-.588-.623s-.536-.23-.857-.23a1.631 1.631 0 0 0-1.206.517 1.78 1.78 0 0 0-.495 1.229c.003.315.077.605.221.871s.343.477.597.636c.253.159.541.239.862.239z" style="fill:var(--color3, #303030)"/>
    </symbol>
    <symbol id="icon-roadmap-p5" viewBox="0 0 32 32">
      <path fill="#fff" stroke="#b88139" stroke-width="1.778" d="M31.111 16c0 8.346-6.765 15.111-15.111 15.111S.889 24.346.889 16 7.654.889 16 .889 31.111 7.654 31.111 16z" style="fill:var(--color2, #fff);stroke:var(--color1, #b88139)"/>
      <path fill="#303030" d="M16.458 20.568c-.589 0-1.117-.11-1.582-.331a2.816 2.816 0 0 1-1.109-.919 2.437 2.437 0 0 1-.433-1.335h1.591c.029.371.19.675.482.91.292.233.642.349 1.052.349.321 0 .607-.074.857-.221s.448-.352.592-.614.215-.561.212-.897c.003-.342-.069-.645-.217-.91s-.349-.473-.605-.623a1.69 1.69 0 0 0-.884-.23c-.271-.003-.538.047-.8.15s-.47.239-.623.407l-1.48-.243.473-4.667h5.25v1.37h-3.893l-.261 2.4h.053c.168-.197.405-.361.712-.491a2.502 2.502 0 0 1 1.008-.199c.548 0 1.037.13 1.467.389.43.256.769.61 1.016 1.061s.371.966.371 1.547c0 .598-.138 1.131-.415 1.6a2.935 2.935 0 0 1-1.145 1.1c-.486.265-1.049.398-1.688.398z" style="fill:var(--color3, #303030)"/>
    </symbol>
    <symbol id="icon-roadmap-p4" viewBox="0 0 32 32">
      <path fill="#fff" stroke="#b88139" stroke-width="1.778" d="M31.111 16c0 8.346-6.765 15.111-15.111 15.111S.889 24.346.889 16 7.654.889 16 .889 31.111 7.654 31.111 16z" style="fill:var(--color2, #fff);stroke:var(--color1, #b88139)"/>
      <path fill="#303030" d="M12.497 18.765v-1.304l3.84-6.068h1.087v1.856h-.663l-2.585 4.097v.071h5.36v1.348h-7.04zm4.317 1.679v-2.077l.018-.583v-6.39h1.547v9.05h-1.564z" style="fill:var(--color3, #303030)"/>
    </symbol>
    <symbol id="icon-roadmap-p3" viewBox="0 0 32 32">
      <path fill="#fff" stroke="#b88139" stroke-width="1.778" d="M31.111 16c0 8.346-6.765 15.111-15.111 15.111S.889 24.346.889 16 7.654.889 16 .889 31.111 7.654 31.111 16z" style="fill:var(--color2, #fff);stroke:var(--color1, #b88139)"/>
      <path fill="#303030" d="M15.999 20.568c-.636 0-1.202-.109-1.697-.327-.492-.218-.881-.521-1.167-.91s-.438-.838-.455-1.348h1.662c.015.245.096.458.243.641.147.18.343.32.588.42s.518.15.822.15c.324 0 .611-.056.862-.168.25-.115.446-.274.588-.477s.211-.438.208-.703c.003-.274-.068-.516-.212-.725s-.354-.373-.627-.491c-.271-.118-.598-.177-.981-.177h-.8v-1.264h.8c.315 0 .591-.055.826-.164.239-.109.426-.262.561-.46.136-.2.202-.432.199-.694a1.21 1.21 0 0 0-.172-.667 1.162 1.162 0 0 0-.491-.446 1.612 1.612 0 0 0-.738-.159c-.277 0-.533.05-.769.15s-.426.243-.57.429a1.092 1.092 0 0 0-.23.654h-1.578c.012-.507.158-.952.438-1.335.283-.386.66-.687 1.131-.902.471-.218 1-.327 1.586-.327.604 0 1.128.113 1.573.34.448.224.794.526 1.038.906s.367.8.367 1.259c.003.51-.147.937-.451 1.281-.301.345-.695.57-1.184.676v.071c.636.088 1.124.324 1.463.707.342.38.511.853.508 1.419 0 .507-.144.96-.433 1.361-.286.398-.681.71-1.184.937-.501.227-1.075.34-1.723.34z" style="fill:var(--color3, #303030)"/>
    </symbol>
    <symbol id="icon-roadmap-p2" viewBox="0 0 32 32">
      <path fill="#fff" stroke="#b88139" stroke-width="1.778" d="M31.111 16c0 8.346-6.765 15.111-15.111 15.111S.889 24.346.889 16 7.654.889 16 .889 31.111 7.654 31.111 16z" style="fill:var(--color2, #fff);stroke:var(--color1, #b88139)"/>
      <path fill="#303030" d="M13.384 20.444V19.26l3.142-3.08c.3-.303.551-.573.751-.809s.351-.464.451-.685c.1-.221.15-.457.15-.707 0-.286-.065-.53-.195-.734-.13-.206-.308-.365-.535-.477s-.485-.168-.773-.168a1.59 1.59 0 0 0-.782.186 1.272 1.272 0 0 0-.521.517 1.661 1.661 0 0 0-.181.8h-1.56c0-.575.131-1.074.393-1.498s.623-.753 1.083-.986c.463-.233.993-.349 1.591-.349.607 0 1.14.113 1.6.34s.816.538 1.069.932c.256.395.385.845.385 1.352 0 .339-.065.672-.195.999s-.358.689-.685 1.087c-.324.398-.779.879-1.366 1.445l-1.56 1.587v.062h3.942v1.37h-6.205z" style="fill:var(--color3, #303030)"/>
    </symbol>
    <symbol id="icon-roadmap-p1" viewBox="0 0 32 32">
      <path fill="#fff" stroke="#b88139" stroke-width="1.778" d="M31.111 16c0 8.346-6.765 15.111-15.111 15.111S.889 24.346.889 16 7.654.889 16 .889 31.111 7.654 31.111 16z" style="fill:var(--color2, #fff);stroke:var(--color1, #b88139)"/>
      <path fill="#303030" d="M17.94 11.394v9.05H16.3v-7.455h-.053l-2.117 1.352v-1.502l2.249-1.445h1.56z" style="fill:var(--color3, #303030)"/>
    </symbol>    
    <symbol id="icon-benefits-p7" viewBox="0 0 32 32">
      <path d="M30.934 13.464l-1.436-0.283-1.021-2.464 0.815-1.216c0.273-0.407 0.222-0.933-0.125-1.279l-2.183-2.183c-0.346-0.346-0.872-0.398-1.279-0.125l-1.216 0.815-2.464-1.021-0.283-1.436c-0.095-0.481-0.503-0.816-0.993-0.816h-3.087c-0.49 0-0.898 0.336-0.993 0.816l-0.283 1.436-2.464 1.021-1.216-0.815c-0.407-0.273-0.933-0.221-1.279 0.125l-2.183 2.183c-0.346 0.346-0.398 0.872-0.125 1.279l0.032 0.047h-3.145v-2.885c0.766-0.195 1.335-0.891 1.335-1.717 0-0.977-0.795-1.772-1.772-1.772s-1.772 0.795-1.772 1.772c0 0.826 0.568 1.522 1.335 1.717v3.322c0 0.242 0.196 0.438 0.438 0.438h8.982c0.097 0 0.191-0.032 0.268-0.092 1.265-0.981 2.782-1.499 4.387-1.499 3.953 0 7.168 3.216 7.168 7.168s-3.216 7.168-7.168 7.168c-1.605 0-3.121-0.518-4.387-1.499-0.077-0.059-0.171-0.092-0.268-0.092h-8.982c-0.242 0-0.438 0.196-0.438 0.438v3.322c-0.766 0.195-1.335 0.891-1.335 1.717 0 0.977 0.795 1.772 1.772 1.772s1.772-0.795 1.772-1.772c0-0.826-0.568-1.522-1.335-1.717v-2.885h3.145l-0.032 0.047c-0.273 0.407-0.221 0.933 0.125 1.279l2.183 2.183c0.346 0.346 0.873 0.398 1.279 0.125l1.216-0.815 2.464 1.021 0.283 1.436c0.095 0.481 0.503 0.816 0.993 0.816h3.087c0.49 0 0.898-0.336 0.993-0.816l0.283-1.436 2.464-1.021 1.216 0.815c0.407 0.273 0.933 0.221 1.279-0.125l2.183-2.183c0.346-0.346 0.398-0.872 0.125-1.279l-0.815-1.216 1.021-2.464 1.436-0.283c0.481-0.095 0.816-0.503 0.816-0.993v-3.087c0-0.49-0.336-0.898-0.816-0.993l-0-0zM4.671 4.946c0-0.495 0.402-0.897 0.897-0.897s0.897 0.402 0.897 0.897c0 0.495-0.402 0.897-0.897 0.897s-0.897-0.402-0.897-0.897zM6.465 27.054c0 0.495-0.402 0.897-0.897 0.897s-0.897-0.402-0.897-0.897c0-0.495 0.402-0.897 0.897-0.897s0.897 0.402 0.897 0.897zM30.875 17.543c0 0.069-0.043 0.121-0.111 0.134l-1.666 0.328c-0.144 0.028-0.264 0.127-0.32 0.262l-1.2 2.897c-0.056 0.135-0.041 0.29 0.041 0.411l0.946 1.41c0.038 0.057 0.031 0.125-0.017 0.173l-2.183 2.183c-0.048 0.048-0.116 0.055-0.173 0.017l-1.411-0.946c-0.122-0.082-0.276-0.097-0.411-0.041l-2.897 1.2c-0.135 0.056-0.233 0.176-0.262 0.32l-0.328 1.666c-0.013 0.067-0.066 0.111-0.134 0.111h-3.087c-0.068 0-0.121-0.043-0.134-0.111l-0.328-1.666c-0.028-0.144-0.127-0.264-0.262-0.32l-2.897-1.2c-0.054-0.022-0.111-0.033-0.167-0.033-0.086 0-0.171 0.025-0.244 0.074l-1.411 0.946c-0.057 0.038-0.125 0.032-0.173-0.017l-2.183-2.183c-0.048-0.048-0.055-0.116-0.017-0.173l0.359-0.535h4.199c1.396 1.041 3.053 1.591 4.802 1.591 4.435 0 8.043-3.608 8.043-8.043s-3.608-8.043-8.043-8.043c-1.75 0-3.407 0.55-4.802 1.591h-4.199l-0.359-0.535c-0.038-0.057-0.031-0.125 0.017-0.173l2.183-2.183c0.048-0.048 0.116-0.055 0.173-0.017l1.41 0.946c0.122 0.082 0.276 0.097 0.411 0.041l2.897-1.2c0.135-0.056 0.233-0.176 0.262-0.32l0.328-1.666c0.013-0.067 0.066-0.111 0.134-0.111h3.087c0.068 0 0.121 0.043 0.134 0.111l0.328 1.666c0.028 0.144 0.127 0.263 0.262 0.32l2.897 1.2c0.135 0.056 0.29 0.041 0.411-0.041l1.41-0.946c0.057-0.038 0.125-0.032 0.173 0.017l2.183 2.183c0.048 0.048 0.055 0.116 0.017 0.173l-0.946 1.411c-0.082 0.122-0.097 0.276-0.041 0.411l1.2 2.897c0.056 0.135 0.176 0.233 0.32 0.262l1.666 0.328c0.067 0.013 0.111 0.066 0.111 0.134v3.087l0 0zM12.741 19.572c0.242 0 0.438 0.196 0.438 0.438s-0.196 0.438-0.438 0.438h-4.691c-0.242 0-0.438-0.196-0.438-0.438s0.196-0.438 0.438-0.438h4.691zM4.748 17.698c-0.183-0.158-0.203-0.434-0.046-0.617l1.178-1.366c0.083-0.096 0.204-0.152 0.331-0.152h5.388c0.242 0 0.438 0.196 0.438 0.438s-0.196 0.438-0.438 0.438h-5.187l-1.048 1.215c-0.087 0.1-0.209 0.152-0.332 0.152-0.101 0-0.203-0.035-0.286-0.106zM8.050 12.428c-0.242 0-0.437-0.196-0.437-0.438s0.196-0.438 0.437-0.438h4.691c0.242 0 0.438 0.196 0.438 0.438s-0.196 0.438-0.438 0.438h-4.691zM5.834 19.809c0.127 0 0.248-0.055 0.331-0.152l1.048-1.215h10.021v1.736c0 0.279 0.155 0.524 0.404 0.64 0.097 0.045 0.201 0.067 0.304 0.067 0.166 0 0.329-0.057 0.458-0.167l4.892-4.144c0.169-0.143 0.266-0.353 0.266-0.575s-0.097-0.432-0.266-0.575l-4.892-4.144c-0.21-0.178-0.509-0.217-0.762-0.1-0.249 0.116-0.404 0.361-0.404 0.64v1.736h-10.021l-1.048-1.214c-0.083-0.096-0.204-0.152-0.331-0.152h-2.271c-0.193-0.718-0.849-1.248-1.627-1.248-0.929 0-1.685 0.756-1.685 1.685s0.756 1.685 1.685 1.685c0.778 0 1.434-0.53 1.627-1.248h2.071l1.048 1.214c0.083 0.096 0.204 0.152 0.331 0.152h10.659c0.242 0 0.438-0.196 0.438-0.438v-1.814l4.509 3.819-4.509 3.819v-1.814c0-0.242-0.196-0.438-0.438-0.438h-10.659c-0.127 0-0.248 0.055-0.331 0.152l-1.048 1.215h-2.071c-0.193-0.718-0.849-1.248-1.627-1.248-0.929 0-1.685 0.756-1.685 1.685s0.756 1.685 1.685 1.685c0.778 0 1.434-0.53 1.628-1.248l2.271 0zM1.935 13.439c-0.447 0-0.81-0.364-0.81-0.81s0.364-0.81 0.81-0.81 0.81 0.364 0.81 0.81c0 0.447-0.364 0.81-0.81 0.81zM1.935 20.182c-0.447 0-0.81-0.364-0.81-0.81s0.364-0.81 0.81-0.81 0.81 0.364 0.81 0.81c0 0.447-0.364 0.81-0.81 0.81z"></path>
    </symbol>
    <symbol id="icon-benefits-p8" viewBox="0 0 33 32">
      <path fill="#fff" style="fill: var(--color1, #fff)" d="M26.781 3.257c-0.242-0.092-0.513 0.030-0.605 0.272s0.030 0.513 0.272 0.605c0.988 0.376 1.653 1.339 1.653 2.396 0 1.412-1.149 2.561-2.562 2.561s-2.561-1.149-2.561-2.561c0-1.058 0.664-2.020 1.652-2.396 0.242-0.092 0.364-0.363 0.272-0.605s-0.363-0.364-0.605-0.272c-1.35 0.513-2.257 1.827-2.257 3.272 0 0.637 0.172 1.234 0.471 1.749l-3.987 3.084c-0.527-0.519-1.217-0.873-1.986-0.976v-3.42c1.709-0.23 3.030-1.697 3.030-3.467-0-1.93-1.57-3.499-3.499-3.499s-3.499 1.57-3.499 3.499c0 1.77 1.322 3.237 3.030 3.467v3.42c-0.769 0.103-1.459 0.457-1.986 0.976l-3.987-3.084c0.299-0.515 0.47-1.112 0.47-1.749 0-1.93-1.569-3.499-3.499-3.499-1.444 0-2.76 0.907-3.273 2.257-0.092 0.242 0.030 0.513 0.272 0.605s0.513-0.030 0.605-0.272c0.376-0.989 1.339-1.653 2.396-1.653 1.412 0 2.561 1.149 2.561 2.562s-1.149 2.561-2.561 2.561c-1.058 0-2.020-0.664-2.396-1.652-0.092-0.242-0.363-0.364-0.605-0.272s-0.364 0.363-0.272 0.605c0.513 1.35 1.827 2.257 3.272 2.257 0.955 0 1.822-0.385 2.454-1.008l3.987 3.084c-0.299 0.515-0.471 1.112-0.471 1.749 0 1.261 0.685 2.423 1.768 3.041v4.382h-0.794c-0.955 0-1.731 0.777-1.731 1.732v2.209c0 3.74 3.043 6.782 6.782 6.782 1.811 0 3.515-0.706 4.796-1.987s1.986-2.984 1.986-4.796v-0.358c0-0.259-0.21-0.469-0.469-0.469s-0.469 0.21-0.469 0.469v0.358c0 1.561-0.608 3.029-1.712 4.133s-2.572 1.712-4.133 1.712c-3.223 0-5.845-2.622-5.845-5.845v-2.209c0-0.438 0.356-0.794 0.794-0.794h0.794v0.853l-0.368 0.368c-0.183 0.183-0.183 0.48 0 0.663 0.092 0.091 0.212 0.137 0.332 0.137s0.24-0.046 0.332-0.137l0.505-0.505c0.088-0.088 0.137-0.207 0.137-0.331l0-8.144c0-0.212 0.083-0.412 0.233-0.562 0.149-0.15 0.348-0.232 0.561-0.232 0.438 0 0.794 0.356 0.794 0.794l0 7.387c0 0.259 0.21 0.469 0.469 0.469s0.469-0.21 0.469-0.469c0 0-0-3.41-0-3.41 0.001-0.216 0.087-0.418 0.243-0.569s0.362-0.23 0.58-0.222c0.422 0.015 0.765 0.385 0.765 0.824l-0 3.377c0 0.259 0.21 0.469 0.469 0.469s0.469-0.21 0.469-0.469c0 0 0-2.046 0-2.051 0-0.217 0.086-0.42 0.243-0.572s0.363-0.23 0.58-0.222c0.422 0.015 0.765 0.384 0.765 0.823l-0 2.021c0 0.259 0.21 0.469 0.469 0.469s0.469-0.21 0.469-0.469c0 0 0-0.757 0-0.758 0-0.217 0.086-0.42 0.242-0.571s0.361-0.23 0.581-0.223c0.421 0.015 0.764 0.385 0.764 0.824v0.896c0 0.259 0.21 0.469 0.469 0.469s0.469-0.21 0.469-0.469v-0.896c0-0.938-0.748-1.728-1.669-1.761-0.31-0.011-0.611 0.059-0.877 0.201-0.125-0.817-0.817-1.465-1.649-1.494-0.307-0.012-0.605 0.057-0.869 0.197-0.098-0.856-0.79-1.522-1.657-1.553-0.302-0.012-0.596 0.055-0.857 0.191v-0.661c1.083-0.618 1.768-1.78 1.768-3.041 0-0.637-0.172-1.234-0.471-1.749l3.987-3.084c0.632 0.623 1.499 1.008 2.454 1.008 1.93 0 3.499-1.569 3.499-3.499 0-1.444-0.907-2.76-2.257-3.273zM13.507 3.499c0-1.413 1.149-2.562 2.562-2.562s2.562 1.149 2.562 2.562c0 1.412-1.149 2.562-2.562 2.562s-2.562-1.149-2.562-2.562zM17.8 15.739v-0.623c0-0.955-0.777-1.732-1.731-1.732-0.463 0-0.898 0.18-1.224 0.507s-0.507 0.762-0.507 1.225v0.623c-0.519-0.478-0.831-1.159-0.831-1.886 0-1.413 1.149-2.562 2.562-2.562s2.562 1.149 2.562 2.562c0 0.727-0.312 1.408-0.831 1.886z"></path>
    </symbol>
    
  </defs>
</svg>
