<svg xmlns="http://www.w3.org/2000/svg" aria-hidden="true" style="position:absolute;width:0;height:0;overflow:hidden">
  <defs>
    <symbol id="icon-benefits-p5" viewBox="0 0 32 32">
      <path d="m10.393 10.623.747.96a5.868 5.868 0 0 0-.688 1.532l-1.149.145a.365.365 0 0 0-.32.359v1.852c0 .184.136.339.32.359l1.047.131a5.72 5.72 0 0 0 .655 1.721l-.606.781a.362.362 0 0 0 .029.48l1.309 1.309a.362.362 0 0 0 .48.029l.722-.562a5.89 5.89 0 0 0 1.804.776l.112.878c.024.184.179.32.359.32h1.852a.359.359 0 0 0 .359-.32l.112-.878a5.89 5.89 0 0 0 1.804-.776l.722.562a.363.363 0 0 0 .48-.029l1.309-1.309a.362.362 0 0 0 .029-.48l-.606-.781a5.968 5.968 0 0 0 .655-1.721l1.047-.131a.365.365 0 0 0 .32-.359v-1.852a.359.359 0 0 0-.32-.359l-1.149-.145a5.901 5.901 0 0 0-.688-1.532l.747-.96a.362.362 0 0 0-.029-.48l-1.309-1.309a.362.362 0 0 0-.48-.029l-1.023.795a5.824 5.824 0 0 0-1.45-.587l-.16-1.299a.365.365 0 0 0-.359-.32h-1.852a.359.359 0 0 0-.359.32l-.16 1.299a5.763 5.763 0 0 0-1.45.587l-1.023-.795a.362.362 0 0 0-.48.029l-1.309 1.309a.345.345 0 0 0-.048.48zm1.624-1.047.965.752a.364.364 0 0 0 .417.019 5.154 5.154 0 0 1 1.687-.679.355.355 0 0 0 .286-.31l.155-1.236h1.207l.155 1.236a.36.36 0 0 0 .286.31 5.11 5.11 0 0 1 1.687.679.366.366 0 0 0 .417-.019l.965-.752.853.853-.713.916a.363.363 0 0 0-.01.431c.373.529.635 1.12.79 1.755.034.145.16.257.31.276l1.076.136v1.207l-.989.121a.37.37 0 0 0-.315.305 5.163 5.163 0 0 1-.732 1.939.366.366 0 0 0 .019.417l.562.727-.853.853-.679-.528a.365.365 0 0 0-.432-.01 5.108 5.108 0 0 1-2.007.863.36.36 0 0 0-.291.31l-.102.815h-1.207l-.102-.815a.36.36 0 0 0-.291-.31 5.186 5.186 0 0 1-2.007-.863.365.365 0 0 0-.432.01l-.679.528-.853-.853.562-.727a.364.364 0 0 0 .019-.417 5.152 5.152 0 0 1-.732-1.939.37.37 0 0 0-.315-.305l-.994-.126v-1.207l1.076-.136a.366.366 0 0 0 .31-.276 5.133 5.133 0 0 1 .79-1.755.365.365 0 0 0-.01-.432l-.713-.916.858-.848z"/>
      <path d="M16.133 17.993c1.789 0 3.244-1.455 3.244-3.244s-1.455-3.244-3.244-3.244c-1.789 0-3.244 1.455-3.244 3.244s1.455 3.244 3.244 3.244zm0-5.76c1.387 0 2.516 1.13 2.516 2.516s-1.13 2.516-2.516 2.516c-1.387 0-2.516-1.13-2.516-2.516s1.13-2.516 2.516-2.516zM21.481 8.606a.367.367 0 0 0 .364-.364v-3.03h1.721a1.82 1.82 0 0 0 1.779 1.455 1.819 1.819 0 0 0 0-3.636c-.878 0-1.615.625-1.779 1.455h-2.085a.367.367 0 0 0-.364.364v3.394c0 .199.16.364.364.364zm3.864-4.848c.601 0 1.091.49 1.091 1.091s-.49 1.091-1.091 1.091-1.091-.49-1.091-1.091.49-1.091 1.091-1.091z"/>
      <path d="M28.739 6.909c-.878 0-1.615.625-1.779 1.455h-1.615a.367.367 0 0 0-.364.364v2.545h-2.55c-.199 0-.364.165-.364.364s.165.364.364.364h2.55v2.182h-.606c-.199 0-.364.165-.364.364s.165.364.364.364h.97a.367.367 0 0 0 .364-.364v-2.545h.606a1.58 1.58 0 0 1 1.576 1.576v11.273H4.376V13.578a1.58 1.58 0 0 1 1.576-1.576h.606v2.545c0 .199.165.364.364.364h.97c.199 0 .364-.165.364-.364s-.165-.364-.364-.364h-.606v-2.182h2.55c.199 0 .364-.165.364-.364s-.165-.364-.364-.364h-2.55V8.728a.367.367 0 0 0-.364-.364H5.307a1.82 1.82 0 0 0-1.779-1.455 1.819 1.819 0 0 0 0 3.636c.878 0 1.615-.625 1.779-1.455h1.251v2.182h-.606a2.305 2.305 0 0 0-2.303 2.303v12.606a2.305 2.305 0 0 0 2.303 2.303h5.455v2.182H9.831c-.199 0-.364.165-.364.364s.165.364.364.364h12.606c.199 0 .364-.165.364-.364s-.165-.364-.364-.364h-1.576v-2.182h5.455a2.305 2.305 0 0 0 2.303-2.303V13.575a2.305 2.305 0 0 0-2.303-2.303h-.606V9.09h1.251a1.82 1.82 0 0 0 1.779 1.455 1.819 1.819 0 0 0 0-3.636zM3.527 9.818c-.601 0-1.091-.49-1.091-1.091s.49-1.091 1.091-1.091 1.091.49 1.091 1.091-.49 1.091-1.091 1.091zm16.606 20.849h-8v-2.182h8v2.182zm7.758-4.485a1.58 1.58 0 0 1-1.576 1.576H5.951a1.58 1.58 0 0 1-1.576-1.576v-.606H27.89v.606zm.848-16.364c-.601 0-1.091-.49-1.091-1.091s.49-1.091 1.091-1.091 1.091.49 1.091 1.091-.49 1.091-1.091 1.091z"/>
      <path d="M6.921 6.667c.878 0 1.615-.625 1.779-1.455h1.721v3.03c0 .199.165.364.364.364s.364-.165.364-.364V4.848a.367.367 0 0 0-.364-.364H8.7a1.82 1.82 0 0 0-1.779-1.455 1.819 1.819 0 0 0 0 3.636zm0-2.909c.601 0 1.091.49 1.091 1.091S7.522 5.94 6.921 5.94 5.83 5.45 5.83 4.849s.49-1.091 1.091-1.091zM15.77 4.204v2.099c0 .199.165.364.364.364s.364-.165.364-.364V4.204a1.82 1.82 0 0 0 1.455-1.779 1.819 1.819 0 0 0-3.636 0c0 .878.625 1.615 1.455 1.779zm.363-2.871c.601 0 1.091.49 1.091 1.091s-.49 1.091-1.091 1.091-1.091-.49-1.091-1.091.49-1.091 1.091-1.091z"/>
    </symbol>
    <symbol id="icon-benefits-p2" viewBox="0 0 32 32">
      <path fill="#fff" d="M25.889 5.265h-2.857a.312.312 0 0 0-.312.312v14.05c0 .173.14.313.312.313h2.857c.173 0 .312-.14.312-.313V5.577a.312.312 0 0 0-.312-.312zm-.312 14.051h-2.232V5.891h2.232v13.425zm3.048 1.449H21.97a6.517 6.517 0 0 0-.773-2.342V9.58a.312.312 0 0 0-.313-.312h-2.857a.313.313 0 0 0-.313.312v5.864a6.521 6.521 0 0 0-1.522-.358V8.461a.312.312 0 0 0-.312-.312h-2.857a.313.313 0 0 0-.313.312v7.189a6.566 6.566 0 0 0-1.522.98v-4.226a.313.313 0 0 0-.313-.313H8.018a.313.313 0 0 0-.313.313v7.224c0 .173.14.312.313.312h1.094a6.384 6.384 0 0 0-.161.824H5.534V1.306a.313.313 0 0 0-.313-.313H3.906a.313.313 0 0 0-.313.313v21.086c0 .173.14.312.313.312h5.082c.523 3.099 3.226 5.467 6.471 5.467a6.528 6.528 0 0 0 3.836-1.241l.757.757a.814.814 0 0 0 .234.687l2.851 2.851c.258.258.602.4.969.4s.711-.142.969-.4.4-.602.4-.969-.142-.711-.4-.969l-2.851-2.851a.818.818 0 0 0-.687-.234l-.757-.757a6.52 6.52 0 0 0 1.149-2.74h6.693c.173 0 .312-.14.312-.312v-1.315a.312.312 0 0 0-.312-.312zM18.34 9.892h2.232v7.604a6.6 6.6 0 0 0-2.232-1.785V9.892zm-5.004-1.118h2.232v6.273l-.107-.001c-.744 0-1.459.124-2.125.353V8.774zM8.331 19.316v-6.599h2.232v4.528a6.556 6.556 0 0 0-1.252 2.071h-.98zM4.22 22.08V1.619h.69v19.458c0 .173.14.313.313.313h3.679c-.002.073-.004.146-.004.219 0 .158.006.315.017.471H4.22zm20.415 7.649c.14.14.217.327.217.527a.74.74 0 0 1-.744.744.74.74 0 0 1-.527-.217l-2.851-2.851a.197.197 0 0 1 0-.28l.774-.774a.197.197 0 0 1 .28 0l2.851 2.851zm-3.659-3.207-.601.601-.586-.586c.213-.187.414-.388.601-.601l.586.586zm-5.515 1.025c-3.274 0-5.938-2.664-5.938-5.938s2.664-5.938 5.938-5.938c3.274 0 5.938 2.664 5.938 5.938s-2.664 5.938-5.938 5.938zm12.851-5.467h-6.305c.011-.156.017-.313.017-.471 0-.073-.002-.146-.004-.219h6.292v.69zM9.037 10.736a.313.313 0 0 1 .003-.442l5.192-5.129a.313.313 0 0 1 .386-.042l4.059 2.551 6.541-6.541-.744.109a.312.312 0 1 1-.09-.618l1.677-.246a.311.311 0 0 1 .354.354l-.246 1.677a.313.313 0 0 1-.619-.09l.109-.744-6.717 6.717a.313.313 0 0 1-.387.044l-4.06-2.552-5.016 4.954a.312.312 0 0 1-.442-.003zm6.424 5.785c-2.805 0-5.088 2.282-5.088 5.088s2.282 5.088 5.088 5.088c2.805 0 5.088-2.282 5.088-5.088s-2.282-5.088-5.088-5.088zm0 9.55c-2.461 0-4.463-2.002-4.463-4.463s2.002-4.463 4.463-4.463c2.461 0 4.463 2.002 4.463 4.463s-2.002 4.463-4.463 4.463z" style="fill:var(--color1, #fff)"/>
    </symbol>
    <symbol id="icon-benefits-p6" viewBox="0 0 32 32">
      <path fill="#fff" d="M9.375 26.593c1.749 1.556 3.984 2.738 6.831 3.615.064.02.132.02.196 0 2.847-.876 5.082-2.059 6.831-3.615 1.582-1.407 2.736-3.096 3.527-5.165 1.466-3.83 1.457-8.384 1.447-13.206l-.002-1.202c0-.085-.032-.167-.091-.228s-.138-.099-.222-.104a18.566 18.566 0 0 1-11.363-4.822.334.334 0 0 0-.45 0A18.56 18.56 0 0 1 4.716 6.688a.336.336 0 0 0-.313.332l-.002 1.202c-.01 4.822-.019 9.376 1.447 13.206.791 2.068 1.945 3.757 3.527 5.165zM5.068 8.224l.002-.893A19.244 19.244 0 0 0 16.305 2.56 19.238 19.238 0 0 0 27.54 7.331l.002.893c.02 9.549.038 17.799-11.236 21.317C5.032 26.024 5.05 17.773 5.07 8.224zM16.2 28.34a.328.328 0 0 0 .21 0c4.692-1.554 7.504-4.089 8.848-7.978 1.224-3.541 1.198-8.087 1.177-11.739a.337.337 0 0 0-.286-.328 20.31 20.31 0 0 1-9.638-4.117.334.334 0 0 0-.412 0 20.315 20.315 0 0 1-9.638 4.117.335.335 0 0 0-.286.328c-.021 3.652-.047 8.198 1.177 11.739 1.344 3.889 4.156 6.424 8.848 7.978zM6.839 8.912a20.986 20.986 0 0 0 9.465-4.05 20.986 20.986 0 0 0 9.465 4.05c.02 3.551.014 7.888-1.142 11.232-1.261 3.647-3.907 6.041-8.323 7.528-4.416-1.486-7.062-3.88-8.323-7.528C6.825 16.8 6.819 12.463 6.839 8.912zm5.996 13.814h6.939a1.335 1.335 0 0 0 1.336-1.336v-5.949a1.334 1.334 0 0 0-1.155-1.322v-1.194a3.651 3.651 0 0 0-6.231-2.581 3.651 3.651 0 0 0-1.069 2.581v1.194a1.336 1.336 0 0 0-1.155 1.322v5.949a1.339 1.339 0 0 0 1.336 1.336zm3.469-12.785a2.99 2.99 0 0 1 2.984 2.984v1.182H13.32v-1.182a2.99 2.99 0 0 1 2.984-2.984zm-4.138 5.501a.668.668 0 0 1 .669-.668h6.939a.673.673 0 0 1 .669.668v5.949a.673.673 0 0 1-.669.669h-6.939a.673.673 0 0 1-.669-.669v-5.949zm2.937 5.202h2.403c.053 0 .106-.013.154-.037s.088-.06.119-.104a.33.33 0 0 0 .042-.304l-.516-1.442a1.475 1.475 0 0 0 .378-1.625 1.479 1.479 0 1 0-2.376 1.625l-.516 1.442a.342.342 0 0 0 .161.408c.047.025.1.037.154.037zm1.201-3.788a.809.809 0 0 1 .756 1.104.811.811 0 0 1-.329.397.33.33 0 0 0-.138.395l.439 1.225h-1.456l.439-1.225a.332.332 0 0 0-.138-.395.818.818 0 0 1-.353-.912.81.81 0 0 1 .78-.589z" style="fill:var(--color1, #fff)"/>
    </symbol>
    <symbol id="icon-benefits-p1" viewBox="0 0 32 32">
      <path d="M5.979 10.775c0-.207.168-.375.375-.375h7.856a.375.375 0 0 1 0 .75H6.354a.375.375 0 0 1-.375-.375zm12.248 3.553H6.354a.375.375 0 0 0 0 .75h11.873a.375.375 0 0 0 0-.75zm0 3.928H6.354a.375.375 0 0 0 0 .75h11.873a.375.375 0 0 0 0-.75zm0 3.927H6.354a.375.375 0 0 0 0 .75h11.873a.375.375 0 0 0 0-.75zm0 3.928H6.354a.375.375 0 0 0 0 .75h11.873a.375.375 0 0 0 0-.75zm11.588-.333a5.29 5.29 0 0 1-5.284 5.284 5.249 5.249 0 0 1-2.326-.541H2.56a.378.378 0 0 1-.375-.375V6.132c0-.207.168-.375.375-.375h1.901V3.721c0-.207.168-.375.375-.375h1.901V1.311c0-.207.168-.375.375-.375h14.015a.38.38 0 0 1 .263.107l5.713 5.624a.375.375 0 0 1 .112.267v14.293a5.284 5.284 0 0 1 2.6 4.549zM7.488 3.348h11.364a.38.38 0 0 1 .263.107l5.713 5.624a.375.375 0 0 1 .112.267V20.51a5.234 5.234 0 0 1 1.526.351V7.094l-5.491-5.406H7.488v1.66zm-2.277 2.41 11.364.001c.097 0 .191.036.263.107l5.713 5.624a.375.375 0 0 1 .111.268h.001v9.078a5.202 5.202 0 0 1 1.526-.329V9.505l-5.492-5.406H5.211V5.76zM16.95 7.029v4.354h4.422L16.95 7.029zm4.126 22.743a5.274 5.274 0 0 1-1.829-3.994 5.288 5.288 0 0 1 2.667-4.588v-9.058h-5.338a.375.375 0 0 1-.375-.375V6.508H2.936v23.264h18.141zm7.989-3.994c0-2.501-2.034-4.534-4.534-4.534s-4.534 2.034-4.534 4.534 2.034 4.534 4.534 4.534a4.539 4.539 0 0 0 4.534-4.534zm-2.491-.375h-1.668v-1.668a.375.375 0 0 0-.75 0v1.668h-1.668a.375.375 0 0 0 0 .75h1.668v1.668a.375.375 0 0 0 .75 0v-1.668h1.668a.375.375 0 0 0 0-.75z"/>
    </symbol>
    <symbol id="icon-benefits-p4" viewBox="0 0 32 32">
      <path fill="#fff" d="M24.125 19.65h-8.75a.627.627 0 0 1-.625-.625v-2.263c0-.344.281-.625.625-.625h8.75c.344 0 .625.281.625.625v2.263a.627.627 0 0 1-.625.625zm-8.75-2.894v2.263h8.75v-2.263h-8.75zM24.125 25.325h-8.75a.627.627 0 0 1-.625-.625v-3.875c0-.344.281-.625.625-.625h8.75c.344 0 .625.281.625.625V24.7a.627.627 0 0 1-.625.625zm-8.75-4.5V24.7h8.75v-3.875h-8.75zM24.125 15.4h-8.75a.627.627 0 0 1-.625-.625v-2.262c0-.344.281-.625.625-.625h8.75c.344 0 .625.281.625.625v2.262a.627.627 0 0 1-.625.625zm-8.75-2.887v2.262h8.75v-2.262h-8.75zM12 25.312H7.875a.627.627 0 0 1-.625-.625V12.512c0-.344.281-.625.625-.625H12c.344 0 .625.281.625.625v12.175a.627.627 0 0 1-.625.625zm-4.125-12.8v12.175H12V12.512H7.875z" style="fill:var(--color1, #fff)"/>
      <path fill="#fff" d="M26.688 4.688H5.313a.627.627 0 0 0-.625.625v21.375c0 .344.281.625.625.625h21.375a.627.627 0 0 0 .625-.625V5.313a.627.627 0 0 0-.625-.625zm0 .624V9.95H5.313V5.312h21.375zM5.312 26.688V10.575h21.375v16.113H5.312z" style="fill:var(--color1, #fff)"/>
      <path fill="#fff" d="M13.188 8.638c-.55 0-1-.45-1-1s.45-1 1-1 1 .45 1 1-.45 1-1 1zm0-1.376c-.206 0-.375.169-.375.375s.169.375.375.375.375-.169.375-.375-.169-.375-.375-.375zM10.719 8.638c-.55 0-1-.45-1-1s.45-1 1-1 1 .45 1 1-.45 1-1 1zm0-1.376c-.206 0-.375.169-.375.375s.169.375.375.375.375-.169.375-.375-.169-.375-.375-.375zM8.25 8.638c-.55 0-1-.45-1-1s.45-1 1-1 1 .45 1 1-.45 1-1 1zm0-1.376c-.206 0-.375.169-.375.375s.169.375.375.375.375-.169.375-.375a.376.376 0 0 0-.375-.375zM24.125 8.638h-6.313a.627.627 0 0 1-.625-.625v-.75c0-.344.281-.625.625-.625h6.313c.344 0 .625.281.625.625v.75a.627.627 0 0 1-.625.625zm-6.313-1.376v.75h6.313v-.75h-6.313z" style="fill:var(--color1, #fff)"/>
    </symbol>
    <symbol id="icon-benefits-p3" viewBox="0 0 32 32">
      <path fill="#1d2939" d="M19.235 7.426a.377.377 0 0 1-.184-.048l-1.903-1.074-1.905 1.074a.374.374 0 0 1-.551-.4l.433-2.142-1.611-1.48a.375.375 0 0 1 .211-.648l2.173-.249.91-1.988a.375.375 0 0 1 .682 0l.908 1.988 2.173.249a.374.374 0 0 1 .211.648l-1.611 1.48.433 2.142a.373.373 0 0 1-.367.449zm-4.61-4.068 1.162 1.068c.097.089.14.222.114.35l-.313 1.546 1.375-.776a.374.374 0 0 1 .368 0l1.373.775-.312-1.546a.373.373 0 0 1 .114-.35l1.162-1.068-1.568-.18a.374.374 0 0 1-.298-.217l-.655-1.435-.656 1.435a.374.374 0 0 1-.298.216l-1.568.18zM10.839 31.177a2.148 2.148 0 0 1-2.146-2.146.375.375 0 0 1 .75 0c0 .77.627 1.397 1.397 1.397 1.299 0 2.597-.002 3.894-.004 1.296-.002 2.591-.004 3.885-.004.803 0 1.163-.59 1.163-1.174s-.359-1.174-1.163-1.174a.375.375 0 0 1 0-.75h1.419c.803 0 1.163-.59 1.163-1.174s-.36-1.174-1.163-1.174a.375.375 0 0 1 0-.75h.455c.37 0 .663-.12.872-.357.185-.209.291-.507.291-.817 0-.585-.36-1.175-1.163-1.175a.375.375 0 0 1 0-.75c.803 0 1.163-.59 1.163-1.174s-.36-1.174-1.163-1.174h-2.64a.932.932 0 0 1-.788-.422.929.929 0 0 1-.082-.895c.209-.496.427-1.001.638-1.489.268-.622.546-1.265.808-1.896.755-1.822.655-3.066-.305-3.802-.495-.345-.912-.492-1.204-.426-.19.043-.352.181-.493.421l-1.502 3.682a3.302 3.302 0 0 1-1.724 1.802c-.468.215-1.408.89-2.298 1.763-1.076 1.055-1.46 1.801-1.46 2.147a.375.375 0 0 1-.75 0c0-.852.916-1.929 1.684-2.682.853-.836 1.885-1.621 2.509-1.908a2.54 2.54 0 0 0 1.344-1.405l1.511-3.706a.355.355 0 0 1 .021-.044c.251-.44.584-.71.991-.802.519-.117 1.11.062 1.804.547l.012.009c1.258.957 1.443 2.535.55 4.69-.264.637-.543 1.282-.812 1.906-.21.487-.427.99-.636 1.485-.029.068-.024.127.016.187s.093.088.165.088h2.64c1.255 0 1.912.967 1.912 1.923 0 .587-.248 1.18-.731 1.548.483.369.731.961.731 1.549 0 .688-.34 1.381-.997 1.717.358.367.542.876.542 1.381 0 .497-.17.963-.478 1.312-.328.371-.779.58-1.312.608.245.34.371.76.371 1.177 0 .956-.657 1.923-1.912 1.923-1.294 0-2.589.002-3.884.004-1.297.002-2.596.004-3.896.004z" style="fill:var(--color2, #1d2939)"/>
      <path fill="#fff" d="M20.493 21.877H18.67a.375.375 0 0 1 0-.75h1.823a.375.375 0 0 1 0 .75zM20.037 24.976h-1.825a.375.375 0 0 1 0-.75h1.825a.375.375 0 0 1 0 .75zM19.583 28.073h-1.825a.375.375 0 0 1 0-.75h1.825a.375.375 0 0 1 0 .75z" style="fill:var(--color1, #fff)"/>
      <path fill="#1d2939" d="M26.766 10.245a.377.377 0 0 1-.184-.048l-1.905-1.074-1.905 1.074a.374.374 0 0 1-.551-.401l.435-2.144-1.61-1.478a.375.375 0 0 1 .211-.649l2.171-.25.91-1.989a.375.375 0 0 1 .682 0l.91 1.989 2.171.25a.375.375 0 0 1 .21.649l-1.61 1.478.435 2.144a.375.375 0 0 1-.367.45zm-2.089-1.928c.064 0 .127.016.184.048l1.375.775-.314-1.547a.373.373 0 0 1 .114-.35l1.162-1.067-1.567-.181a.376.376 0 0 1-.298-.216l-.657-1.436-.657 1.436a.376.376 0 0 1-.298.216l-1.567.181 1.162 1.067c.097.089.14.222.114.35l-.314 1.547 1.375-.775a.377.377 0 0 1 .184-.048zM7.527 10.245a.375.375 0 0 1-.367-.45l.435-2.144-1.61-1.478a.375.375 0 0 1 .21-.648l2.173-.25.908-1.989a.375.375 0 0 1 .682 0l.91 1.989 2.171.25a.374.374 0 0 1 .21.648L11.64 7.651l.433 2.144a.373.373 0 0 1-.551.4L9.617 9.121l-1.905 1.074a.377.377 0 0 1-.184.048zm2.089-1.928c.064 0 .127.016.184.048l1.375.776-.313-1.548a.373.373 0 0 1 .114-.35l1.161-1.067-1.567-.181a.376.376 0 0 1-.298-.216l-.656-1.435-.655 1.435a.376.376 0 0 1-.298.217l-1.568.181 1.162 1.067c.097.089.14.222.114.35l-.314 1.547 1.375-.775a.377.377 0 0 1 .184-.048zM7.703 31.749H5.575a1.74 1.74 0 0 1-1.739-1.737V19.646a1.74 1.74 0 0 1 1.737-1.739h2.129c.959 0 1.739.78 1.739 1.739V30.01a1.74 1.74 0 0 1-1.739 1.739zm-2.13-13.093a.99.99 0 0 0-.988.989v10.366a.99.99 0 0 0 .99.988h2.128a.99.99 0 0 0 .99-.989V19.646a.99.99 0 0 0-.99-.989h-2.13z" style="fill:var(--color2, #1d2939)"/>
    </symbol>
    <symbol id="icon-roadmap-prelaunch" viewBox="0 0 32 32">
      <path fill="#fff" d="M23.334 21.333a2 2 0 1 0-.001 3.999 2 2 0 0 0 .001-3.999zm-4.667 2a4.667 4.667 0 1 1 9.334 0 4.667 4.667 0 0 1-9.334 0z" style="fill:var(--color1, #fff)"/>
      <path fill="#fff" d="M25.058 25.057a1.333 1.333 0 0 1 1.886 0l2 2a1.333 1.333 0 1 1-1.886 1.886l-2-2a1.333 1.333 0 0 1 0-1.886zM5.333 13.333c0-5.028 0-7.542 1.562-9.105S10.971 2.666 16 2.666c5.028 0 7.542 0 9.105 1.562s1.562 4.076 1.562 9.105v4.225a6.667 6.667 0 1 0-6.364 11.714c-1.186.061-2.6.061-4.302.061-5.028 0-7.543 0-9.105-1.562s-1.562-4.076-1.562-9.105v-5.333zm5.333-6.666a1.333 1.333 0 0 0 0 2.666h5.333a1.333 1.333 0 0 0 0-2.666h-5.333zm0 5.333a1.333 1.333 0 0 0 0 2.666h8a1.333 1.333 0 0 0 0-2.666h-8zm0 5.333a1.333 1.333 0 0 0 0 2.666h4a1.333 1.333 0 0 0 0-2.666h-4z" style="fill:var(--color1, #fff)"/>
    </symbol>
    <symbol id="icon-roadmap-scaling" viewBox="0 0 32 32">
      <path fill="#fff" d="M4 5.333C4 4.597 4.597 4 5.333 4h8a1.333 1.333 0 0 1 0 2.666H8.552l8.391 8.391a1.333 1.333 0 1 1-1.886 1.886L6.666 8.552v4.781a1.333 1.333 0 0 1-2.666 0v-8z" style="fill:var(--color1, #fff)"/>
      <path fill="#fff" d="M4 26.667C4 27.403 4.597 28 5.333 28h8a1.333 1.333 0 0 0 0-2.666H8.552l8.391-8.39a1.333 1.333 0 1 0-1.886-1.886l-8.391 8.39v-4.781a1.333 1.333 0 0 0-2.666 0v8z" style="fill:var(--color1, #fff)"/>
      <path fill="#fff" d="M28 5.333C28 4.597 27.403 4 26.667 4h-8a1.333 1.333 0 0 0 0 2.666h4.781l-8.39 8.391a1.333 1.333 0 1 0 1.886 1.886l8.39-8.391v4.781a1.333 1.333 0 0 0 2.666 0v-8z" style="fill:var(--color1, #fff)"/>
      <path fill="#fff" d="M28 26.667c0 .736-.597 1.333-1.333 1.333h-8a1.333 1.333 0 0 1 0-2.666h4.781l-8.39-8.39a1.333 1.333 0 1 1 1.886-1.886l8.39 8.39v-4.781a1.333 1.333 0 0 1 2.666 0v8z" style="fill:var(--color1, #fff)"/>
    </symbol>
    <symbol id="icon-roadmap-start" viewBox="0 0 104 32">
      <path fill="#008272" d="M0 0h81.778v32H0V0z" style="fill:var(--color3, #008272)"/>
      <path fill="#fff" d="M22.805 13.468c-.071-.597-.357-1.06-.86-1.391s-1.12-.495-1.85-.495c-.534 0-1.002.086-1.402.259-.397.173-.707.41-.931.713-.22.302-.33.646-.33 1.031 0 .322.077.599.23.831.157.228.357.418.601.572.244.149.499.273.766.371.267.094.513.171.736.23l1.226.33c.314.083.664.196 1.049.342.389.145.76.344 1.114.595.357.247.652.566.884.955s.348.866.348 1.432c0 .652-.171 1.241-.513 1.768-.338.526-.833.945-1.485 1.255-.648.31-1.436.466-2.363.466-.864 0-1.613-.14-2.245-.418-.628-.279-1.123-.668-1.485-1.167a3.322 3.322 0 0 1-.607-1.738h1.508c.039.456.192.833.46 1.131.271.295.613.515 1.025.66.416.141.864.212 1.343.212.558 0 1.059-.09 1.502-.271.444-.185.796-.44 1.055-.766.259-.33.389-.715.389-1.155 0-.401-.112-.727-.336-.978s-.519-.456-.884-.613a9.168 9.168 0 0 0-1.184-.412l-1.485-.424c-.943-.271-1.689-.658-2.239-1.161s-.825-1.161-.825-1.974c0-.676.183-1.265.548-1.768.369-.507.864-.899 1.485-1.178.625-.283 1.322-.424 2.092-.424.778 0 1.469.139 2.074.418.605.275 1.084.652 1.438 1.131.357.479.546 1.023.566 1.632h-1.414zm3.322-1.721v-1.296h9.051v1.296h-3.795v10.771h-1.461V11.747h-3.795zm10.391 10.772h-1.532l4.431-12.067h1.508l4.431 12.067h-1.532l-3.606-10.158h-.094l-3.606 10.158zm.565-4.714h6.175v1.296h-6.175v-1.296zm10.153 4.714V10.452h4.078c.943 0 1.717.161 2.322.483.605.318 1.053.756 1.343 1.314s.436 1.192.436 1.903-.145 1.341-.436 1.891c-.291.55-.737.982-1.338 1.296-.601.31-1.369.465-2.304.465h-3.3v-1.32h3.252c.644 0 1.163-.094 1.556-.283.397-.189.684-.456.86-.801.181-.35.271-.766.271-1.249s-.09-.905-.271-1.267a1.853 1.853 0 0 0-.866-.837c-.397-.2-.921-.301-1.573-.301h-2.569v10.771h-1.461zm5.68-5.421 2.97 5.421h-1.697l-2.923-5.421h1.65zm4.273-5.351v-1.296h9.05v1.296h-3.795v10.771h-1.461V11.747h-3.795z" style="fill:var(--color1, #fff)"/>
      <path fill="#008272" d="M104.296 16.028 81.777 32l.034-32 22.485 16.028z" style="fill:var(--color3, #008272)"/>
    </symbol>
    <symbol id="icon-roadmap-keepgoing" viewBox="0 0 290 32">
      <path fill="#008272" d="M0 0h267.852v32H0V0z" style="fill:var(--color3, #008272)"/>
      <path fill="#fff" d="M59.188 22.613c-.291 0-.54-.104-.748-.312s-.312-.458-.312-.748c0-.291.104-.54.312-.748s.458-.312.748-.312c.291 0 .54.104.748.312s.312.458.312.748a1 1 0 0 1-.147.53 1.098 1.098 0 0 1-.383.389 1.013 1.013 0 0 1-.53.141zm4.569 0c-.291 0-.54-.104-.748-.312s-.312-.458-.312-.748c0-.291.104-.54.312-.748s.458-.312.748-.312.54.104.748.312c.208.208.312.458.312.748a1 1 0 0 1-.147.53 1.098 1.098 0 0 1-.383.389 1.013 1.013 0 0 1-.53.141zm4.57 0c-.291 0-.54-.104-.748-.312s-.312-.458-.312-.748c0-.291.104-.54.312-.748s.458-.312.748-.312c.291 0 .54.104.748.312s.312.458.312.748a1 1 0 0 1-.147.53 1.098 1.098 0 0 1-.383.389 1.013 1.013 0 0 1-.53.141zm4.239-.094h-1.532l4.431-12.067h1.508l4.431 12.067h-1.532l-3.606-10.158h-.094l-3.606 10.158zm.566-4.714h6.175v1.296h-6.175v-1.296zm19.721-7.354v12.067h-1.414l-6.576-9.475h-.118v9.475h-1.461V10.451h1.414l6.599 9.498h.118v-9.498h1.438zm6.648 12.068h-3.724V10.452h3.889c1.171 0 2.172.242 3.005.725.833.479 1.471 1.169 1.915 2.068.444.896.666 1.968.666 3.217 0 1.257-.224 2.339-.672 3.247a4.791 4.791 0 0 1-1.956 2.086c-.856.483-1.897.725-3.123.725zm-2.262-1.297h2.168c.998 0 1.825-.192 2.481-.577s1.145-.933 1.467-1.644c.322-.711.483-1.558.483-2.54 0-.974-.159-1.813-.477-2.516-.318-.707-.793-1.249-1.426-1.626-.632-.381-1.42-.572-2.363-.572h-2.333v9.475zm15.131 1.297V10.452h1.461v5.986h.141l5.421-5.986h1.909l-5.067 5.444 5.067 6.623h-1.767l-4.196-5.609-1.508 1.697v3.912h-1.461zm10.824 0V10.452h7.283v1.296h-5.822v4.077h5.445v1.296h-5.445v4.101h5.915v1.296h-7.377zm9.917 0V10.452h7.283v1.296h-5.822v4.077h5.445v1.296h-5.445v4.101h5.915v1.296h-7.377zm9.916 0V10.452h4.078c.946 0 1.72.171 2.321.513.606.338 1.054.795 1.344 1.373s.436 1.222.436 1.933c0 .711-.146 1.357-.436 1.939-.287.581-.731 1.045-1.332 1.391-.601.342-1.37.513-2.31.513h-2.921v-1.296h2.875c.648 0 1.169-.112 1.561-.336.393-.224.678-.526.855-.907.181-.385.271-.819.271-1.302s-.09-.915-.271-1.296a1.934 1.934 0 0 0-.86-.896c-.397-.22-.923-.33-1.579-.33h-2.569v10.771h-1.461zm23.449-8.297a4.287 4.287 0 0 0-.513-1.067 3.304 3.304 0 0 0-.748-.813 3.143 3.143 0 0 0-.979-.513 3.892 3.892 0 0 0-1.202-.177c-.715 0-1.364.185-1.95.554s-1.051.913-1.397 1.632c-.345.719-.518 1.601-.518 2.646s.174 1.927.524 2.646c.35.719.824 1.263 1.421 1.632a3.75 3.75 0 0 0 2.015.554c.691 0 1.3-.147 1.826-.442.53-.299.942-.719 1.237-1.261.299-.546.448-1.188.448-1.927l.448.094h-3.63v-1.296h4.596v1.296c0 .994-.212 1.858-.636 2.593a4.394 4.394 0 0 1-1.743 1.709c-.74.401-1.587.601-2.546.601-1.069 0-2.008-.251-2.817-.754-.805-.503-1.433-1.218-1.886-2.145-.447-.927-.671-2.027-.671-3.3 0-.955.127-1.813.383-2.575.26-.766.625-1.418 1.096-1.956a4.781 4.781 0 0 1 1.673-1.237 5.162 5.162 0 0 1 2.126-.43c.636 0 1.23.096 1.78.289a4.805 4.805 0 0 1 1.479.807 4.69 4.69 0 0 1 1.69 2.84h-1.508zm14.264 2.263c0 1.273-.23 2.373-.69 3.3s-1.09 1.642-1.892 2.145c-.801.503-1.716.754-2.746.754-1.029 0-1.944-.251-2.745-.754-.802-.503-1.433-1.218-1.892-2.145-.46-.927-.69-2.027-.69-3.3s.23-2.373.69-3.3c.459-.927 1.089-1.642 1.892-2.145.801-.503 1.716-.754 2.745-.754 1.03 0 1.945.251 2.746.754s1.432 1.218 1.892 2.145c.46.927.69 2.027.69 3.3zm-1.416 0c0-1.045-.174-1.927-.524-2.646-.346-.719-.815-1.263-1.408-1.632a3.653 3.653 0 0 0-1.98-.554 3.68 3.68 0 0 0-1.985.554c-.589.369-1.058.913-1.408 1.632-.346.719-.519 1.601-.519 2.646s.173 1.927.519 2.646c.35.719.819 1.263 1.408 1.632a3.682 3.682 0 0 0 1.985.554c.731 0 1.391-.185 1.98-.554.593-.369 1.062-.913 1.408-1.632.35-.719.524-1.601.524-2.646zm5.334-6.034v12.067h-1.461V10.451h1.461zm12.499 0v12.067h-1.414l-6.577-9.475h-.117v9.475h-1.461V10.451h1.414l6.599 9.498h.119v-9.498h1.438zm11.172 3.771a4.25 4.25 0 0 0-.512-1.067 3.327 3.327 0 0 0-.749-.813c-.287-.224-.613-.395-.978-.513s-.766-.177-1.202-.177c-.715 0-1.365.185-1.951.554s-1.05.913-1.396 1.632c-.346.719-.519 1.601-.519 2.646s.175 1.927.525 2.646c.35.719.823 1.263 1.42 1.632s1.269.554 2.015.554c.692 0 1.3-.147 1.826-.442a3.146 3.146 0 0 0 1.239-1.261c.297-.546.447-1.188.447-1.927l.448.094h-3.629v-1.296h4.596v1.296c0 .994-.212 1.858-.636 2.593a4.406 4.406 0 0 1-1.745 1.709c-.738.401-1.587.601-2.546.601-1.068 0-2.007-.251-2.816-.754-.806-.503-1.434-1.218-1.886-2.145-.448-.927-.672-2.027-.672-3.3 0-.955.128-1.813.383-2.575.26-.766.625-1.418 1.096-1.956s1.029-.951 1.673-1.237 1.353-.43 2.127-.43c.636 0 1.229.096 1.779.289a4.805 4.805 0 0 1 1.479.807c.436.346.8.76 1.09 1.243.29.479.491 1.012.601 1.597h-1.509z" style="fill:var(--color1, #fff)"/>
      <path fill="#008272" d="M290.37 16.028 267.851 32l.034-32 22.484 16.028z" style="fill:var(--color3, #008272)"/>
    </symbol>
    <symbol id="icon-roadmap-discovery" viewBox="0 0 32 32">
      <path fill="#fff" d="M7.429 2.62a1.524 1.524 0 0 0-.238 2.142l5.334 6.667-5.334 6.667A1.524 1.524 0 0 0 9.571 20l6.095-7.619a1.525 1.525 0 0 0 0-1.904L9.571 2.858a1.524 1.524 0 0 0-2.142-.238zM24.571 11.762c.657.526.764 1.485.238 2.142l-5.334 6.667 5.334 6.667a1.524 1.524 0 0 1-2.38 1.904l-6.095-7.619a1.525 1.525 0 0 1 0-1.904L22.429 12a1.524 1.524 0 0 1 2.142-.238z" style="fill:var(--color1, #fff)"/>
    </symbol>
    <symbol id="icon-mobile-menu" viewBox="0 0 32 32">
      <path d="M4.799 8.001a1.6 1.6 0 0 1 1.6-1.6h19.2a1.6 1.6 0 0 1 0 3.2h-19.2a1.6 1.6 0 0 1-1.6-1.6zM4.799 16.001a1.6 1.6 0 0 1 1.6-1.6h19.2a1.6 1.6 0 0 1 0 3.2h-19.2a1.6 1.6 0 0 1-1.6-1.6zM4.799 24.001a1.6 1.6 0 0 1 1.6-1.6h19.2a1.6 1.6 0 0 1 0 3.2h-19.2a1.6 1.6 0 0 1-1.6-1.6z"/>
    </symbol>
    <symbol id="icon-linkedin" viewBox="0 0 32 32">
      <path d="M31.992 32v-.001H32V20.263c0-5.741-1.236-10.164-7.948-10.164-3.227 0-5.392 1.771-6.276 3.449h-.093v-2.913h-6.364v21.364h6.627V21.42c0-2.785.528-5.479 3.977-5.479 3.399 0 3.449 3.179 3.449 5.657v10.401h6.62zM.528 10.636h6.635V32H.528V10.636zM3.843 0C1.722 0 0 1.721 0 3.843s1.721 3.879 3.843 3.879c2.121 0 3.843-1.757 3.843-3.879A3.846 3.846 0 0 0 3.843 0z"/>
    </symbol>
    <symbol id="icon-footer-logo" viewBox="0 0 132 32">
      <path d="M57.44 30.56c1.6.96 3.36 1.44 5.44 1.44 1.6 0 2.88-.32 4-.8s1.92-1.28 2.4-2.4h.16v2.72h5.44V0h-5.44v11.68h-.16c-.64-.96-1.6-1.6-2.56-2.08s-2.24-.64-3.52-.64c-2.08 0-3.84.48-5.6 1.44-1.6.96-2.88 2.4-3.84 4.16s-1.44 3.84-1.44 6.08c0 2.08.48 4 1.44 5.76.8 1.76 2.08 3.04 3.68 4.16zm1.92-5.44c-1.12-1.28-1.6-2.72-1.6-4.64s.48-3.36 1.6-4.64c1.12-1.28 2.56-1.92 4.32-1.92s3.36.64 4.32 1.92c1.12 1.28 1.6 2.72 1.6 4.64s-.48 3.36-1.6 4.64c-1.12 1.28-2.56 1.76-4.32 1.76s-3.2-.64-4.32-1.76zm24.48 5.44c1.76.96 3.68 1.44 5.76 1.44 1.76 0 3.52-.32 5.12-.96s3.04-1.6 4-2.72l-3.2-3.36c-.8.64-1.76 1.28-2.72 1.44-.96.32-2.08.48-3.2.48-1.6 0-3.04-.48-4.16-1.28-1.12-.96-1.76-2.08-1.92-3.52h16.32l.16-1.6c0-2.24-.48-4.32-1.28-6.08s-2.08-3.04-3.68-4.16c-1.6-.96-3.52-1.44-5.6-1.44s-4 .48-5.6 1.44c-1.76.96-3.04 2.4-4 4.16s-1.44 3.68-1.44 5.92c0 2.24.48 4.32 1.44 6.08.96 1.92 2.4 3.2 4 4.16zm9.12-15.52c.96.8 1.6 1.76 1.6 3.04H83.68c.16-1.28.8-2.24 1.92-3.04s2.4-1.12 3.84-1.12 2.56.32 3.52 1.12zm10.08-2.24c2.72-2.56 5.92-3.84 9.76-3.84 3.04 0 5.44.8 7.2 2.4s2.72 3.84 2.72 6.72v13.44h-5.44v-3.2h-.16c-.96 1.28-2.08 2.24-3.36 2.72-1.28.64-2.56.96-4.16.96-1.28 0-2.56-.32-3.68-.8s-1.92-1.28-2.72-2.4c-.64-.96-.96-2.24-.96-3.68 0-2.08.8-3.68 2.4-4.96s3.84-1.92 6.72-1.92h5.92v-.48c0-1.28-.48-2.24-1.44-3.04-1.12-.64-2.24-.96-3.84-.96-2.24 0-4.16.8-5.76 2.4l-3.2-3.36zm4.64 12.16c0 .64.32 1.28.8 1.76.64.48 1.44.8 2.72.8s2.24-.16 3.04-.64c.96-.48 1.6-1.12 2.08-1.92s.8-1.6.8-2.4v-.16h-5.92c-1.28 0-2.08.32-2.72.8-.48.48-.8 1.12-.8 1.76zM125.92 0h5.44v31.52h-5.44V0zM43.04 14.88l3.04 4.64L52.8 9.6h-6.24l-3.52 5.28zm3.04 6.08-3.04 4.64 3.84 5.92h6.24l-7.04-10.56zM27.52 10.08h-5.44v21.44h5.44V10.08zM22.4.96c-.64.64-.96 1.44-.96 2.24s.32 1.6.96 2.24c.64.64 1.44.96 2.24.96.96 0 1.6-.32 2.24-.96s.96-1.44.96-2.24c0-.96-.32-1.6-.96-2.24C26.4.32 25.6 0 24.8 0c-.96 0-1.76.32-2.4.96zm-3.84.16H0v30.4h5.6V20.16h12V15.2h-12V6.24h12.96V1.12zm11.68 8.32 7.2 10.72-7.52 11.2h6.24l7.36-11.2-7.04-10.72h-6.24z"/>
    </symbol>
  </defs>
</svg>
