<svg width="24" height="24" viewBox="0 0 24 24" fill="none" xmlns="http://www.w3.org/2000/svg">
<g clip-path="url(#clip0_7979_84893)">
<path d="M12.0001 4.28564C7.7458 4.28564 4.28809 7.74336 4.28809 11.9999C4.28809 16.2542 7.7458 19.7142 12.0001 19.7142C16.2544 19.7142 19.7144 16.2542 19.7144 11.9999C19.7144 7.74336 16.2544 4.28564 12.0001 4.28564ZM12.0001 18.8571C8.20751 18.8571 5.14066 15.7925 5.14066 11.9999C5.14066 8.20736 8.20751 5.14279 12.0001 5.14279C15.7927 5.14279 18.8572 8.20736 18.8572 11.9999C18.8572 15.7902 15.7927 18.8571 12.0001 18.8571Z" fill="#98A2B3"/>
<path d="M23.7926 9.77886C23.7549 9.576 23.5783 9.42629 23.3709 9.42629H21.9577C21.7211 8.51143 21.3417 7.59143 20.864 6.77429L21.8571 5.77886C22.0046 5.63371 22.0269 5.404 21.9086 5.232C21.0669 3.99771 20.0023 2.93314 18.768 2.09143C18.5983 1.97543 18.3686 1.99543 18.2234 2.14057L17.2657 3.10057C16.4463 2.62057 15.4914 2.28114 14.5714 2.04229V0.629714C14.5714 0.421714 14.424 0.245714 14.2211 0.207429C13.4886 0.0691429 12.7434 0 11.9977 0C11.2503 0.00228571 10.5091 0.076 9.77657 0.218857C9.57371 0.256571 9.42857 0.433143 9.42857 0.638286V2.04229C8.51314 2.28343 7.59829 2.66286 6.78343 3.14286L5.77657 2.14057C5.63143 1.99543 5.404 1.97543 5.232 2.09143C4 2.93314 2.93543 3.99771 2.09143 5.232C1.97543 5.40171 1.99771 5.63143 2.14286 5.77657L3.14286 6.77429C2.66286 7.59143 2.28571 8.51143 2.04686 9.42629H0.636C0.430857 9.42629 0.254286 9.57371 0.214286 9.77429C0.0737143 10.5069 0.00228571 11.252 0 12C0.00228571 12.7457 0.0737143 13.4909 0.214286 14.2234C0.254286 14.4246 0.430857 14.5714 0.636 14.5714H2.04686C2.28571 15.4869 2.66286 16.3994 3.14286 17.2166L2.14286 18.2211C1.99771 18.3686 1.97543 18.596 2.09143 18.7657C2.93543 20 4 21.0669 5.232 21.9109C5.404 22.0269 5.63143 22.0069 5.77657 21.8594L6.78343 20.8571C7.59829 21.3371 8.51314 21.7166 9.42857 21.9577V23.364C9.42857 23.5691 9.57371 23.7457 9.77657 23.7834C10.5091 23.924 11.2503 24 11.9977 24C12.7434 23.9954 13.4909 23.924 14.2234 23.7834C14.4263 23.7457 14.5714 23.5691 14.5714 23.364V21.9577C15.4869 21.7166 16.4017 21.3371 17.2166 20.8571L18.2234 21.8594C18.3686 22.0069 18.5983 22.0269 18.768 21.9109C20.0023 21.0669 21.0669 20 21.9086 18.7657C22.0246 18.596 22.0023 18.3686 21.8571 18.2211L20.8549 17.2166C21.3349 16.3994 21.7189 15.4931 21.9577 14.5783L23.364 14.5714C23.5691 14.5714 23.7457 14.424 23.7857 14.2234C23.9263 13.4914 23.9977 12.748 24 12.0023C24 11.5023 23.9663 10.6543 23.7926 9.77886ZM22.9777 13.7143H21.6206C21.4194 13.712 21.2434 13.8526 21.2011 14.0491C20.96 15.116 20.5406 16.1337 19.9531 17.056C19.8457 17.2234 19.8703 17.4446 20.0114 17.5874L20.996 18.5743C20.3171 19.5051 19.5029 20.3177 18.572 20.996L17.5874 20.0091C17.4446 19.8686 17.2211 19.844 17.0537 19.9531C16.132 20.54 15.116 20.9651 14.0514 21.2034C13.8549 21.2457 13.7166 21.42 13.7143 21.6206V23.0023C13.1474 23.0937 12.576 23.1383 12 23.1406C11.424 23.1383 10.8549 23.0937 10.288 23.0023L10.2857 21.6206C10.2857 21.4194 10.1451 21.2457 9.95086 21.2034C8.884 20.9651 7.87029 20.5406 6.94857 19.9531C6.77886 19.844 6.556 19.8686 6.41314 20.0091L5.42857 20.9954C4.5 20.3166 3.68286 19.5046 3.00457 18.5737L3.99086 17.5869C4.13143 17.444 4.15429 17.2229 4.04686 17.0554C3.46 16.1337 3.04 15.1154 2.80114 14.0486C2.75657 13.8526 2.58057 13.712 2.37943 13.7143H1.02229C0.933143 13.1474 0.859429 12.5783 0.857143 12.0023C0.859429 11.4263 0.908571 10.8526 1 10.2834H2.37943C2.58057 10.2857 2.75657 10.1474 2.80114 9.95314C3.04 8.88629 3.46 7.86857 4.04686 6.94629C4.156 6.77657 4.13143 6.55371 3.99086 6.41314L3.00457 5.424C3.68286 4.49314 4.49086 3.68057 5.42171 3.00229L6.41314 3.98857C6.556 4.13143 6.77886 4.156 6.94857 4.04914C7.87029 3.46229 8.884 3.03771 9.95086 2.79886C10.1451 2.75429 10.2857 2.58286 10.2857 2.38171V1.02457C10.8549 0.933143 11.424 0.859429 12 0.857143C12.576 0.857143 13.1474 0.928571 13.7143 1.01771V2.37714C13.7143 2.58057 13.8526 2.75429 14.0491 2.79886C15.1183 3.036 16.136 3.45543 17.0583 4.04229C17.228 4.14971 17.4491 4.12514 17.592 3.98457L18.5297 3.04686C19.4606 3.72571 20.2754 4.54 20.9537 5.46857L20.0183 6.40857C19.8754 6.55143 19.8509 6.77257 19.9583 6.94171C20.5429 7.864 20.9674 8.88171 21.204 9.94857C21.2486 10.1451 21.4206 10.2834 21.6211 10.2834H22.9829C23.0691 10.8526 23.1429 11.424 23.1429 12C23.1406 12.576 23.0691 13.1451 22.9777 13.7143Z" fill="#98A2B3"/>
<path d="M11.978 11.5717H12.0003C12.2414 11.5717 12.4266 11.7569 12.4266 12.0003C12.4266 12.2414 12.2414 12.4289 12.0003 12.4289C11.7591 12.4289 11.5694 12.2414 11.5694 12.0003C11.5694 11.766 11.746 11.5831 11.978 11.5717ZM12.0003 6.85742C9.16542 6.85742 6.85742 9.16314 6.85742 12.0003C6.85742 12.7077 7.00028 13.3866 7.26142 14.0026C7.52256 14.6163 7.89742 15.1723 8.36199 15.6363C8.52942 15.806 8.80142 15.806 8.96885 15.6363C9.13628 15.4689 9.13628 15.1986 8.96885 15.0289C8.58085 14.6426 8.26828 14.1831 8.05171 13.6694C7.83514 13.1586 7.71456 12.5917 7.71456 12.0003C7.71456 9.62771 9.62771 7.71685 12.0003 7.71685C13.0317 7.71685 13.9757 8.07628 14.7146 8.67914L12.554 10.842C12.3866 10.7614 12.1991 10.7146 12.0003 10.7146C11.2951 10.7146 10.7169 11.2951 10.7169 12.0003C10.7169 12.7031 11.2951 13.286 12.0003 13.286C12.7054 13.286 13.286 12.7031 13.286 12.0003C13.286 11.8014 13.2391 11.6163 13.1586 11.4489C13.1609 11.4466 13.1609 11.4466 13.1609 11.4466L15.322 9.28599C15.9243 10.0249 16.2877 10.9689 16.2877 12.0003C16.2877 12.5917 16.1649 13.1586 15.9483 13.67C15.7317 14.1831 15.4191 14.6431 15.0311 15.0294C14.8637 15.1991 14.8637 15.4694 15.0311 15.6369C15.1986 15.8043 15.4689 15.8043 15.6363 15.6369C16.1009 15.1723 16.4803 14.6169 16.7391 14.0031C17.0003 13.3871 17.1454 12.7083 17.1454 12.0009C17.1454 10.7351 16.6854 9.57914 15.9266 8.68142L16.1609 8.44714C16.3283 8.27971 16.3283 8.00771 16.1609 7.84028C15.9934 7.67285 15.7209 7.67285 15.5534 7.84028L15.3169 8.07456C14.422 7.31742 13.2637 6.85742 12.0003 6.85742Z" fill="#008272"/>
</g>
<defs>
<clipPath id="clip0_7979_84893">
<rect width="24" height="24" fill="white"/>
</clipPath>
</defs>
</svg>
